<?xml version="1.0" encoding="utf-8"?>
<!-- Generator: Adobe Illustrator 19.0.0, SVG Export Plug-In . SVG Version: 6.00 Build 0)  -->
<svg version="1.1" id="Layer_1" xmlns="http://www.w3.org/2000/svg" xmlns:xlink="http://www.w3.org/1999/xlink" x="0px" y="0px"
	 viewBox="-267 525 1000 1000" style="enable-background:new -267 525 1000 1000;" xml:space="preserve">
<style type="text/css">
	.st0{display:none;fill:#010101;}
	.st1{display:none;fill:#FFFFFF;}
	.st2{fill:#FFFFFF;}
</style>
<g>
	<path id="XMLID_252_" class="st0" d="M-39.8,1421.3c3.3-0.2,7.6-0.7,9.9-6.8c2.1-7.1-4.4-15.9-9.6-16.2c-6.4,1-9.9,6.8-10.2,15.5
		C-49.3,1418.8-44.4,1421.6-39.8,1421.3z"/>
	<path id="XMLID_251_" class="st1" d="M-39.8,1421.3c3.3,0,7.9-2.1,9.9-6.8s-3-13.3-7.4-16.3c-1-0.7-6.2-1.3-6.5,0
		c-0.4,1.9-7.2,5.3-6.6,15.5C-50,1419.3-43.1,1421.3-39.8,1421.3z"/>
	
		<ellipse id="XMLID_250_" transform="matrix(-0.9799 0.1994 -0.1994 -0.9799 194.6278 2811.0706)" class="st2" cx="-44.2" cy="1415.3" rx="0.4" ry="0.5"/>
</g>
</svg>
