<?xml version="1.0" encoding="utf-8"?>
<!-- Generator: Adobe Illustrator 19.0.0, SVG Export Plug-In . SVG Version: 6.00 Build 0)  -->
<svg version="1.1" id="Base" xmlns="http://www.w3.org/2000/svg" xmlns:xlink="http://www.w3.org/1999/xlink" x="0px" y="0px"
	 viewBox="0 0 320 335" style="enable-background:new 0 0 320 335;" xml:space="preserve">
<g id="XMLID_5_">
	<path id="XMLID_81_" d="M48,337l-0.9-1.5c-1-1.7-2.3-2.9-4-3.7c-1.7-0.8-3.9-1.2-6.5-1.2c-5,0-8.8-0.1-11.1-0.4
		c-2.5-0.3-4.5-1.1-5.9-2.3c-1.4-1.3-2.1-3.3-2.1-6v-0.4c0-0.3-0.1-0.4-0.1-0.4c0,0-0.1-0.1-0.4-0.1H16c-9.4,0-17-7.6-17-17V16
		C-1,6.6,6.6-1,16-1h288c9.4,0,17,7.6,17,17v288c0,9.4-7.6,17-17,17H79.1c-0.3,0-0.4,0.1-0.4,0.1c0,0-0.1,0.1-0.1,0.4v0.4
		c0,2.7-0.7,4.7-2.1,6c-1.4,1.2-3.3,2-5.9,2.3c-2.4,0.3-6.2,0.4-11.2,0.4c-2.6,0-4.8,0.4-6.5,1.2c-1.7,0.8-2.9,2-4,3.7L48,337z
		 M16,1C7.7,1,1,7.7,1,16v288c0,8.3,6.7,15,15,15h0.9c0.7,0,1.4,0.3,1.9,0.7s0.7,1.1,0.7,1.9v0.4c0,2.1,0.5,3.6,1.5,4.5
		c1,0.9,2.6,1.5,4.8,1.8c2.3,0.3,6,0.4,10.9,0.4c2.9,0,5.4,0.5,7.3,1.4c1.6,0.7,2.9,1.8,4,3.2c1.1-1.4,2.4-2.5,4-3.2
		c1.9-0.9,4.4-1.4,7.3-1.4c4.9,0,8.6-0.1,10.9-0.4c2.2-0.3,3.8-0.9,4.8-1.8c1-0.9,1.5-2.4,1.5-4.5v-0.4c0-0.7,0.3-1.4,0.7-1.9
		s1.1-0.7,1.9-0.7H304c8.3,0,15-6.7,15-15V16c0-8.3-6.7-15-15-15H16z"/>
</g>
</svg>
