<?xml version="1.0" encoding="utf-8"?>
<!-- Generator: Adobe Illustrator 19.0.0, SVG Export Plug-In . SVG Version: 6.00 Build 0)  -->
<svg version="1.1" id="Base" xmlns="http://www.w3.org/2000/svg" xmlns:xlink="http://www.w3.org/1999/xlink" x="0px" y="0px"
	 viewBox="0 0 424 25.5" style="enable-background:new 0 0 424 25.5;" xml:space="preserve">
<path id="XMLID_11_" d="M411,2H94.6c-0.6,0-0.9,0.2-1,0.4c-0.2,0.2-0.4,0.4-0.4,1v0.5c0,3.9-1,6.8-3,8.6c-1.9,1.8-4.8,2.9-8.6,3.3
	c-3.6,0.4-9.2,0.7-16.7,0.7c-4,0-7.4,0.6-9.9,1.8c-2.5,1.2-4.6,3.1-6.2,5.8l-0.9,1.5l-0.9-1.5c-1.5-2.6-3.6-4.6-6.2-5.8
	c-2.6-1.2-5.9-1.8-9.9-1.8c-7.5,0-13.1-0.2-16.6-0.7c-3.7-0.5-6.6-1.6-8.5-3.3c-2-1.8-3-4.7-3-8.6V3.4c0-0.6-0.2-0.9-0.4-1
	C2.3,2.2,2,2,1.4,2H0V0h1.4c1,0,1.8,0.3,2.4,0.9c0.6,0.6,0.9,1.4,0.9,2.4v0.5c0,3.3,0.8,5.7,2.4,7.1c1.6,1.5,4.1,2.4,7.4,2.8
	c3.5,0.4,9,0.6,16.4,0.6c4.3,0,7.9,0.7,10.8,2c2.5,1.2,4.5,2.9,6.2,5.2c1.6-2.3,3.7-4.1,6.2-5.2c2.9-1.4,6.5-2,10.8-2
	c7.4,0,12.9-0.2,16.5-0.6c3.3-0.4,5.9-1.4,7.5-2.8c1.6-1.4,2.4-3.8,2.4-7.1V3.4c0-1,0.3-1.8,0.9-2.4C92.8,0.3,93.6,0,94.6,0H411
	l13,1L411,2z"/>
</svg>
