<?xml version="1.0" encoding="utf-8"?>
<!-- Generator: Adobe Illustrator 19.0.0, SVG Export Plug-In . SVG Version: 6.00 Build 0)  -->
<svg version="1.1" id="Layer_1" xmlns="http://www.w3.org/2000/svg" xmlns:xlink="http://www.w3.org/1999/xlink" x="0px" y="0px"
	 viewBox="-267 525 1000 1000" style="enable-background:new -267 525 1000 1000;" xml:space="preserve">
<style type="text/css">
	.st0{fill:#010101;}
	.st1{fill:#FFFFFF;}
</style>
<g>
	<path id="Head_Shadow" class="st0" d="M255.5,659.9c1-2.3,1.3-4,1.7-6.4c0.7-5-2.6-8.4-6.8-7c-6.2,1.6-4.4,7-4.2,8.6
		c-1.1,2.6,1,7.8,3.3,8.6C251.9,663.3,254.2,662.6,255.5,659.9z"/>
	<path id="Head_1_" class="st1" d="M255.6,659.9c1-2.3,1.3-4,1.7-6.4c0.7-5-2.6-8.4-6.8-7c-5.5,1.8-4.7,5.3-4.2,8.6
		c-1,2.7,1.1,7.8,3.3,8.5C251.2,663.2,254.1,662.8,255.6,659.9z"/>
</g>
</svg>
