<?xml version="1.0" encoding="utf-8"?>
<!-- Generator: Adobe Illustrator 19.0.0, SVG Export Plug-In . SVG Version: 6.00 Build 0)  -->
<svg version="1.1" id="Arousal" xmlns="http://www.w3.org/2000/svg" xmlns:xlink="http://www.w3.org/1999/xlink" x="0px" y="0px"
	 viewBox="0 0 32 32" style="enable-background:new 0 0 32 32;" xml:space="preserve">
<path id="XMLID_44_" d="M16,31L16,31c0-4.1-4.1-7.3-7.9-10.7c-4-3.5-8.1-7.1-8.1-12C0,3.3,4.2,1,8.2,1c2.1,0,4.2,0.6,5.7,1.8
	c1,0.8,1.8,1.8,2.2,2.9C17.2,2.6,20.5,1,23.8,1C27.8,1,32,3.3,32,8.3c0,4.9-4.1,8.5-8.1,12C20.1,23.7,16,26.9,16,31z M8.4,2.3
	c-3.4,0-7.1,2-7.1,6.2c0,4.3,3.8,7.7,7.6,11c3,2.6,6,5.3,7.1,8.6c1.1-3.2,4.1-5.9,7.1-8.6c3.7-3.3,7.6-6.7,7.6-11
	c0-4.3-3.7-6.2-7.1-6.2c-3.5,0-7.6,2-7.6,6.2l0,0C16,4.2,11.9,2.3,8.4,2.3z"/>
</svg>
