<?xml version="1.0" encoding="utf-8"?>
<!-- Generator: Adobe Illustrator 19.0.0, SVG Export Plug-In . SVG Version: 6.00 Build 0)  -->
<svg version="1.1" id="Bathroom" xmlns="http://www.w3.org/2000/svg" xmlns:xlink="http://www.w3.org/1999/xlink" x="0px" y="0px"
	 viewBox="0 0 32 32" style="enable-background:new 0 0 32 32;" xml:space="preserve">
<path id="XMLID_100_" d="M31,16.8c0-0.7,0-1.4,0-2.1c0-1.7,0-3.4,0-5c0-1.6-0.9-2.4-2.4-2.4c-1.1,0-2.1,0-3.2,0c-1,0-2.1,0-3.1,0
	C20.8,7.2,20,8,20,9.5c0,1.8,0,3.6,0,5.4l0,2c0,2,0.3,2.4,2.3,3l0.1,0v8.7c0,1.4,0.1,2.3,0.6,2.8c0.5,0.5,1.4,0.6,2.8,0.6
	c0,0,0,0,0,0h0.1c2.2,0,2.8-0.6,2.8-2.8c0-2.2,0-4.3,0-6.5l0-2.7l0.1,0C30.8,19.2,31,19,31,16.8z M28.1,18.8c-0.1,0-0.2,0-0.4,0
	l-0.1,0l0,4.8c0,2,0,3.9,0,5.9c0,1.1-0.3,1.5-1.4,1.5l-0.2,0c-0.3,0-0.5,0-0.8,0c-0.9,0-1.3,0-1.6-0.3c-0.3-0.3-0.3-0.8-0.3-1.7
	c0-0.2,0-0.4,0-0.7v-9.3c0,0-0.1,0-0.1,0c-0.1,0-0.1,0-0.2,0c-2-0.1-2.1-0.2-2.1-2.2l0-2c0-1.7,0-3.3,0-5c0-1.2,0.2-1.4,1.4-1.4
	c2,0,4,0,5.9,0c1.2,0,1.5,0.3,1.5,1.5c0,2.4,0,4.8,0,7.2C29.9,18.6,29.7,18.8,28.1,18.8z"/>
<path id="XMLID_114_" d="M12.9,23.2c0.4-0.5,0.5-1.2,0.3-2.5c-0.3-2.9-0.7-5.9-1-8.8l-0.3-2.6C11.8,7.9,11,7.2,9.6,7.2
	c-1.3,0-2.7,0-4,0l-0.7,0c-1.7,0-2.4,0.6-2.6,2.2c-0.2,1.6-0.4,3.3-0.5,4.9c-0.2,2.2-0.5,4.5-0.7,6.7c-0.1,1.1,0,1.8,0.5,2.4
	C2,23.9,2.7,24.1,3.6,24c0,0,0,0,0,0c0.1,0,0.1,0,0.2,0.1c0,0,0.1,0,0.1,0.1l0.1,0v0.1c0,0.4,0,0.9,0,1.3c0,1,0,1.9,0,2.9
	c-0.1,1.5,0.1,2.4,0.6,2.9C5.1,31.9,6.1,32,7.5,32c2.2-0.1,2.8-0.7,2.8-2.9c0-1.1,0-2.2,0-3.3l0-1.8l0.1,0
	C11.7,24,12.5,23.7,12.9,23.2z M9.7,23c-0.2,0-0.3,0-0.5,0l0,1.9c0,1.5,0,3,0,4.5c0,1.3-0.3,1.5-1.5,1.5l-0.1,0c-0.3,0-0.5,0-0.7,0
	c-0.9,0-1.3,0-1.6-0.3C5,30.4,5,29.9,5,28.8c0-0.2,0-0.3,0-0.5c0-1.4,0-2.8,0-4.2l0-0.9c0,0,0,0,0-0.1c0,0,0-0.1,0-0.1l-0.4,0
	c-0.4,0-0.8,0-1.2,0c-0.5,0-0.8-0.1-1-0.3c-0.2-0.2-0.3-0.6-0.2-1l0.5-4.6c0.3-2.6,0.5-5.1,0.8-7.7c0.1-0.8,0.5-1.2,1.3-1.2
	c1.6,0,3.3,0,4.9,0c0,0,0,0,0,0c0.8,0,1.2,0.4,1.3,1.2c0.1,1.3,0.3,2.7,0.4,4c0.3,2.7,0.6,5.5,0.8,8.2c0.1,0.5,0,0.9-0.2,1.1
	c-0.2,0.2-0.5,0.3-1.1,0.4C10.5,23,10.1,23,9.7,23z"/>
<path id="XMLID_131_" d="M22.3,3.1c0,1.7,1.4,3.1,3.1,3.1c0.9,0,1.6-0.3,2.2-0.9c0.6-0.6,0.9-1.4,0.9-2.2c0-1.7-1.4-3.1-3.1-3.1
	c0,0,0,0,0,0c-0.9,0-1.7,0.3-2.2,0.9C22.6,1.5,22.3,2.3,22.3,3.1z M24,1.6c0.4-0.4,1-0.6,1.5-0.6c1.1,0,2.1,1,2.1,2.1
	c0,1.1-1,2.1-2.1,2.1c0,0,0,0,0,0c-0.5,0-1.1-0.2-1.5-0.6c-0.4-0.4-0.7-1-0.7-1.5C23.3,2.6,23.5,2,24,1.6z"/>
<path id="XMLID_140_" d="M7.1,6.2C7.1,6.2,7.1,6.2,7.1,6.2c1.8,0,3.2-1.3,3.2-3.1c0-0.8-0.3-1.6-0.9-2.2C8.8,0.3,8,0,7.1,0
	c0,0,0,0,0,0C6.3,0,5.5,0.3,4.9,0.9C4.3,1.4,4,2.2,4,3.1C4,4.8,5.3,6.2,7.1,6.2z M5.6,1.6C6,1.2,6.6,1,7.1,1c0,0,0,0,0,0
	c1.1,0,2.1,1,2.1,2.1c0,0.6-0.2,1.1-0.6,1.5C8.2,5,7.7,5.2,7.1,5.2c0,0,0,0,0,0C6,5.2,5,4.3,5,3.1C4.9,2.6,5.2,2,5.6,1.6z"/>
<g id="XMLID_66_">
	<g id="XMLID_25_">
		<path id="XMLID_29_" d="M15.9,1.4c0,10,0,19.9,0,29.9c0,0.5,0.8,0.5,0.8,0c0-10,0-19.9,0-29.9C16.7,0.9,15.9,0.9,15.9,1.4
			L15.9,1.4z"/>
	</g>
</g>
</svg>
