<?xml version="1.0" encoding="utf-8"?>
<!-- Generator: Adobe Illustrator 19.0.0, SVG Export Plug-In . SVG Version: 6.00 Build 0)  -->
<svg version="1.1" id="Fatigue" xmlns="http://www.w3.org/2000/svg" xmlns:xlink="http://www.w3.org/1999/xlink" x="0px" y="0px"
	 viewBox="0 0 32 32" style="enable-background:new 0 0 32 32;" xml:space="preserve">
<path id="XMLID_6_" d="M7.3,31.9c-0.1-0.1-0.1-0.2-0.1-0.3v-0.3c0-0.2,0-0.3,0.1-0.4c0.1-0.1,0.1-0.2,0.1-0.2l6.6-8.9H7.8
	c-0.1,0-0.2,0-0.3-0.1s-0.1-0.1-0.1-0.3v-0.2c0-0.1,0-0.2,0.1-0.3c0.1-0.1,0.2-0.1,0.3-0.1h7.2c0.1,0,0.2,0,0.3,0.1s0.1,0.2,0.1,0.3
	v0.3c0,0.1,0,0.2-0.1,0.3c0,0.1-0.1,0.2-0.2,0.3l-6.5,9h6.5c0.1,0,0.2,0,0.3,0.1c0.1,0.1,0.1,0.2,0.1,0.3v0.2c0,0.1,0,0.2-0.1,0.3
	S15.2,32,15.1,32H7.6C7.5,32,7.4,32,7.3,31.9z"/>
<path id="XMLID_8_" d="M18.3,23.4c-0.1-0.1-0.1-0.2-0.1-0.3v-0.4c0-0.2,0.1-0.4,0.2-0.6c0.1-0.1,0.2-0.2,0.2-0.2l8.6-11.7h-8.3
	c-0.1,0-0.3,0-0.3-0.1c-0.1-0.1-0.1-0.2-0.1-0.3V9.3c0-0.1,0-0.3,0.1-0.3c0.1-0.1,0.2-0.1,0.3-0.1h9.4c0.2,0,0.3,0,0.4,0.1
	s0.1,0.2,0.1,0.4v0.4c0,0.2,0,0.3-0.1,0.4c-0.1,0.1-0.1,0.2-0.2,0.4l-8.6,11.8h8.6c0.2,0,0.3,0,0.4,0.1s0.1,0.2,0.1,0.4v0.3
	c0,0.1,0,0.3-0.1,0.3c-0.1,0.1-0.2,0.1-0.4,0.1h-9.8C18.5,23.6,18.4,23.5,18.3,23.4z"/>
<path id="XMLID_10_" d="M3.2,18C3.1,17.9,3,17.8,3,17.6v-0.5c0-0.3,0.1-0.5,0.2-0.7c0.1-0.2,0.2-0.3,0.2-0.3L14.1,1.6H3.8
	c-0.2,0-0.3-0.1-0.4-0.2S3.2,1.2,3.2,1V0.6c0-0.2,0.1-0.3,0.2-0.4S3.7,0,3.8,0h11.7c0.2,0,0.4,0.1,0.5,0.2c0.1,0.1,0.2,0.3,0.2,0.4
	v0.5c0,0.2,0,0.4-0.1,0.5c-0.1,0.1-0.1,0.3-0.3,0.5L5.2,16.6h10.6c0.2,0,0.4,0.1,0.5,0.2s0.2,0.3,0.2,0.4v0.4c0,0.2-0.1,0.3-0.2,0.4
	c-0.1,0.1-0.3,0.2-0.4,0.2H3.6C3.4,18.2,3.3,18.1,3.2,18z"/>
</svg>
