<?xml version="1.0" encoding="utf-8"?>
<!-- Generator: Adobe Illustrator 19.0.0, SVG Export Plug-In . SVG Version: 6.00 Build 0)  -->
<svg version="1.1" id="Hunger" xmlns="http://www.w3.org/2000/svg" xmlns:xlink="http://www.w3.org/1999/xlink" x="0px" y="0px"
	 viewBox="0 0 32 32" style="enable-background:new 0 0 32 32;" xml:space="preserve">
<path id="XMLID_65_" d="M32,15.9c-0.1-0.3-0.3-0.5-1.1-0.5c-1,0-1.9,0-2.9,0l-4.5,0l6.3-8.2c0.1-0.1,0.2-0.4,0.2-0.5
	c-0.2-0.2-0.5-0.5-0.8-0.5c-0.2-0.1-0.5,0.4-0.6,0.5l-2,2.6c-1.3,1.7-2.7,3.4-4,5.1c-0.5,0.7-1.1,1-2,1c0,0,0,0,0,0
	c-6.5,0-13,0-19.5,0c0,0,0,0,0,0c-0.7,0-1.1,0.1-1.1,0.4c-0.1,0.6,0.1,1.8,0.2,2.4c0.1,0.8,0.3,1.5,0.5,2.2c1.1,3.8,3.4,6.9,6.9,9.2
	L8,29.9l-0.1,0.6c-0.2,1.1-0.3,1.2,0.3,1.5h15.6c0.6-0.4,0.6-0.5,0.4-1.1L24,30.4l0.4-0.4c0.5-0.5,0.9-0.9,1.4-1.3
	c1-0.9,2-1.8,2.8-2.8c1.9-2.2,3-4.9,3.3-8C31.9,17.3,32.1,16.4,32,15.9z M16,30.8C16,30.8,16,30.8,16,30.8c-8.4,0-14-6.6-14.6-13.1
	l-0.1-1h29.5l-0.1,1C30,24.1,24.4,30.8,16,30.8z"/>
<path id="XMLID_75_" d="M14.5,4.5c0.2,1,0.6,1.8,1.6,2.7c0.6,0.6,1.4,1.5,1.5,2.9c0,0.1,0.1,0.3,0.2,0.3c0.2,0.1,0.5,0,0.6,0
	c0.1-0.1,0.3-0.5,0.3-0.7c0-1.2-0.6-2.2-1.8-3.4c-1.6-1.5-1.7-3.2-0.1-4.8c0.4-0.5,0.6-0.9,0.5-1c0-0.1-0.2-0.2-0.5-0.3
	c0,0-0.1,0-0.1,0c0,0-0.1,0-0.1,0C14.8,0.4,14.2,2.6,14.5,4.5z"/>
<path id="XMLID_81_" d="M7.3,3.4C7.2,4.7,7.6,5.8,8.5,6.8c0.9,0.9,1.9,1.9,1.9,3.5c0,0.1,0.3,0.3,0.5,0.2c0.3,0,0.5-0.3,0.6-0.5
	c0-0.3,0-0.6,0-0.9C11.3,8,10.7,7.2,9.7,6.2C8.1,4.6,8,3,9.6,1.4c0.4-0.4,0.5-0.8,0.5-1C10,0.2,9.8,0.1,9.5,0C9.5,0,9.4,0,9.3,0
	c0,0-0.1,0-0.1,0C7.7,0.5,7.4,2.5,7.3,3.4z"/>
</svg>
