<?xml version="1.0" encoding="utf-8"?>
<!-- Generator: Adobe Illustrator 19.0.0, SVG Export Plug-In . SVG Version: 6.00 Build 0)  -->
<svg version="1.1" id="Layer_1" xmlns="http://www.w3.org/2000/svg" xmlns:xlink="http://www.w3.org/1999/xlink" x="0px" y="0px"
	 viewBox="-267 525 1000 1000" style="enable-background:new -267 525 1000 1000;" xml:space="preserve">
<style type="text/css">
	.st0{fill:#FFFFFF;}
	.st1{fill:#010101;}
</style>
<g>
	<path id="XMLID_308_" class="st0" d="M229.1,1121c0,0-1.6,6.9-1.7,10.8c-0.1,6.9,2.3,20.7,4.9,29.4c1.2,9.9,1,19.7,1.4,29.7l1.8,0
		c0.4-8.2,5.4-16.6,2.6-25.8c0.4-7.4,1.6-11.6,0.8-25.6c-0.9,15.1,2.7,17.5,4.2,24.6c-2.5,9.3,0.9,17.7,1,27h2.6
		c0-9.4,2.5-15.1,1.2-27c2-10.3,2-22.3,1.9-32.9c0-4.2-0.9-10.4-0.9-10.4L229.1,1121"/>
	<path id="XMLID_307_" class="st1" d="M239.1,1149c-1.6-6.4-2.7-9.9-2-17.2C236.9,1138.9,237.6,1142.5,239.1,1149z"/>
</g>
</svg>
