<?xml version="1.0" encoding="utf-8"?>
<!-- Generator: Adobe Illustrator 19.0.0, SVG Export Plug-In . SVG Version: 6.00 Build 0)  -->
<svg version="1.1" id="Layer_1" xmlns="http://www.w3.org/2000/svg" xmlns:xlink="http://www.w3.org/1999/xlink" x="0px" y="0px"
	 viewBox="-267 525 1000 1000" style="enable-background:new -267 525 1000 1000;" xml:space="preserve">
<style type="text/css">
	.st0{fill:#010101;}
	.st1{fill:#FFFFFF;}
</style>
<g>
	<path id="Body_Shadow_1_" class="st0" d="M238.9,854c3,0.8,2.7,5.5,8,8.7c1.2-2.7,3.2-3.9,5.2-5.5c2-1.6,3.2-2.9,6.7-3.5
		c-1-1.8-2.1-3.1-3-3.8c-1.2-1.1-2.5-1.8-2.5-3.1c0-0.6,0.3-1.3,0.4-1.6c0.4-0.9,1-1.5,1.3-1.7c1-1,2.6-2.6,4.6-4.7
		c1-1.2,2-6.4,1.9-9.2c-2.9-5.8-13.3-9-17-6.2c-0.3,0.2-0.8,0.7-1.2,1.3c-1.8,2.4-2.1,4.9-2.3,6.9c-0.1,0.8-0.3,2.7,0.1,4.8
		c0.1,0.5,0.2,1.1,0.4,2.4c0.2,1.2,0.3,2.1,0.4,2.7c0.3,1.2,0.5,2.3,0.5,3.1c0.1,1.3,0.2,2-0.2,2.9c-0.1,0.4-0.2,0.4-1,1.6
		c-0.1,0.2-0.8,1.3-1.4,2.5C239.7,852.3,239.3,853.1,238.9,854z"/>
	<path id="Body_Normal_2_" class="st1" d="M246.4,821.2c0,0-2.2,0.7-4,4.5c-1.7,3.8-1.7,9.5-0.7,13c0.4,3.7,1.2,4.9,0.9,8.2
		c-0.2,1.6-2.5,3.9-3.7,7.1c2.9,0.9,5.1,8.1,8,8.7c1.4-2.9,5.2-7.3,11.9-9c-1.5-3.3-5.4-4.8-5.7-6.8c-0.3-2.5,4.1-5.5,6.4-8.5
		c1.4-3.5,2.9-10,1.7-13.8c-1.9-3.5-3.5-3.4-3.5-3.4c-5.2-0.5-5.6-2.2-4.9-8l-3.6,0.2C250.6,820.4,248.8,819.8,246.4,821.2"/>
</g>
</svg>
