<?xml version="1.0" encoding="utf-8"?>
<!-- Generator: Adobe Illustrator 19.0.0, SVG Export Plug-In . SVG Version: 6.00 Build 0)  -->
<svg version="1.1" id="Layer_1" xmlns="http://www.w3.org/2000/svg" xmlns:xlink="http://www.w3.org/1999/xlink" x="0px" y="0px"
	 viewBox="-267 525 1000 1000" style="enable-background:new -267 525 1000 1000;" xml:space="preserve">
<style type="text/css">
	.st0{fill:#010101;}
	.st1{fill:#FFFFFF;}
</style>
<g>
	<path id="Body_Shadow_2_" class="st0" d="M238.9,854.1c3,0.8,2.7,5.5,8,8.7c1.2-2.7,3.2-3.9,5.2-5.5c2-1.6,3.2-2.9,6.7-3.5
		c-1.1-2.4-2-3.6-2.5-4.2c-0.1-0.2-0.6-0.7-1-1.4c0,0-0.3-0.7-0.4-1.4c-0.1-0.8,0.2-1.7,2.2-4.4c1.4-2,1.7-2,2.3-3.2
		c0.6-1.1,0.9-2.1,1.1-2.9c0.5-1.8,0.8-3.6,0.6-4.6c-0.7-6-11.9-11.4-16.6-8.3c-0.7,0.5-1.1,1-1.6,1.7c-2.2,3-2.1,6.6-2,9.2
		c0,1,0.2,2.5,0.6,4.4c0.6,2.6,0.2,4.5,0.1,5.2c0,0.7-0.1,2-0.4,3.4C241,848.9,240.4,851.3,238.9,854.1z"/>
	<path id="Body_Normal_3_" class="st1" d="M246.4,821.3c0,0-2.2,0.7-4,4.5c-1.7,3.8-1.7,9.5-0.7,13c0.4,3.7,0.1,4.8-0.2,8
		c-0.2,1.6-1.4,4-2.6,7.3c2.9,0.9,5.1,8.1,8,8.7c1.4-2.9,5.2-7.3,11.9-9c-1.5-3.3-3.8-4.8-4-6.8c-0.3-2.5,3.7-5.9,4.8-8.5
		c1.4-3.5,2.9-10,1.7-13.8c-1.9-3.5-3.5-3.4-3.5-3.4c-5.2-0.5-5.6-2.2-4.9-8l-3.6,0.2C250.6,820.5,248.9,819.9,246.4,821.3"/>
</g>
</svg>
