<?xml version="1.0" encoding="utf-8"?>
<!-- Generator: Adobe Illustrator 19.0.0, SVG Export Plug-In . SVG Version: 6.00 Build 0)  -->
<svg version="1.1" id="Layer_1" xmlns="http://www.w3.org/2000/svg" xmlns:xlink="http://www.w3.org/1999/xlink" x="0px" y="0px"
	 viewBox="-267 525 1000 1000" style="enable-background:new -267 525 1000 1000;" xml:space="preserve">
<style type="text/css">
	.st0{fill:#010101;}
	.st1{fill:#FFFFFF;}
</style>
<g>
	<path id="XMLID_5_" class="st0" d="M211,954.1C211,954.2,211,954.2,211,954.1c0,0.2,0.3,0.8,0.6,1c0.8,0.7,1.6,1,1.6,0.6
		c0-0.1,0.1-0.1,0.1-0.1c0.1-0.3-0.3-0.8-0.9-1.3c-0.5-0.4-0.5-0.4-0.6-0.4c0,0,0,0,0-0.1c0,0,0-0.1,0-0.1c0-0.1-0.1-0.2-0.3-0.3
		c-0.1-0.1-0.4-0.1-0.5,0C210.6,953.6,210.7,954.3,211,954.1C211,954.2,211,954.1,211,954.1z"/>
	<path id="XMLID_4_" class="st1" d="M211,954.2C211.1,954.2,211.1,954.2,211,954.2c0,0.2,0.3,0.7,0.8,1.1c0.4,0.3,1.1,0.8,1.4,0.6
		c0,0,0.1-0.1,0.1-0.1c0.1-0.4-0.4-0.8-0.6-1c-0.5-0.4-0.8-0.7-1-0.8c0,0-0.1,0-0.1-0.1c0,0,0-0.1,0-0.1c0-0.1-0.2-0.2-0.3-0.3
		c-0.1,0-0.3-0.1-0.4,0C210.7,953.6,210.8,954.1,211,954.2C211,954.2,211,954.1,211,954.2z"/>
</g>
</svg>
