<?xml version="1.0" encoding="utf-8"?>
<!-- Generator: Adobe Illustrator 19.0.0, SVG Export Plug-In . SVG Version: 6.00 Build 0)  -->
<svg version="1.1" id="Layer_1" xmlns="http://www.w3.org/2000/svg" xmlns:xlink="http://www.w3.org/1999/xlink" x="0px" y="0px"
	 viewBox="-267 525 1000 1000" style="enable-background:new -267 525 1000 1000;" xml:space="preserve">
<style type="text/css">
	.st0{fill:#010101;}
	.st1{fill:#FFFFFF;}
</style>
<g>
	<path id="XMLID_464_" class="st0" d="M163.7,908.8c0.2,0.1,0.2,0.5,0.2,0.5c0,1,1.9,4.4,3.6,6.1c5.2,5,10.3,6.3,9.8,4
		c-0.1-0.4,0.4-0.5,0.5-0.8c0.7-2.2-2.6-5.4-6.2-8.4c-3-2.5-3.1-2.4-3.8-2.8c-0.1-0.1-0.3-0.2-0.3-0.5c0-0.3,0.2-0.6,0.2-0.8
		c0.1-0.8-1-1.4-1.9-1.9c-0.8-0.4-2.3-0.8-3.1-0.2c-1.8,1.4-0.4,5.3,0.4,4.8C163.2,908.9,163.5,908.7,163.7,908.8z"/>
	<path id="XMLID_463_" class="st1" d="M163.6,908.8c0.2,0.1,0.2,0.5,0.2,0.5c0,0.7,1.7,4.1,5.1,7c2.5,2.2,7.4,5.3,9,3.9
		c0.3-0.3,0.4-0.6,0.5-0.8c0.8-2.4-2.9-5.6-4-6.5c-3.5-3.1-5.6-4.8-6.3-5.3c-0.1-0.1-0.5-0.3-0.5-0.7c0-0.3,0.1-0.4,0.1-0.7
		c0.1-0.7-1.1-1.5-1.9-1.8c-0.6-0.3-2.1-0.9-3-0.2c-1.5,1.1-0.5,4.4,0.2,4.6C163.1,908.9,163.4,908.7,163.6,908.8z"/>
</g>
</svg>
