<?xml version="1.0" encoding="utf-8"?>
<!-- Generator: Adobe Illustrator 19.0.0, SVG Export Plug-In . SVG Version: 6.00 Build 0)  -->
<svg version="1.1" id="Layer_1" xmlns="http://www.w3.org/2000/svg" xmlns:xlink="http://www.w3.org/1999/xlink" x="0px" y="0px"
	 viewBox="-267 525 1000 1000" style="enable-background:new -267 525 1000 1000;" xml:space="preserve">
<style type="text/css">
	.st0{fill:#010101;}
	.st1{fill:#FFFFFF;}
</style>
<g>
	<path id="XMLID_13_" class="st0" d="M151.9,899.9c0.2,0.1,0.2,0.6,0.2,0.6c0,1.2,2.3,5.3,4.4,7.4c6.3,6.1,12.5,7.7,11.9,4.9
		c-0.1-0.4,0.5-0.7,0.6-0.9c0.8-2.6-3.1-6.6-7.5-10.2c-3.6-3-3.7-2.9-4.6-3.4c-0.1-0.1-0.3-0.2-0.4-0.6c-0.1-0.3,0.2-0.7,0.2-0.9
		c0.1-0.9-1.2-1.7-2.4-2.3c-0.9-0.5-2.8-1-3.8-0.2c-2.2,1.7-0.5,6.4,0.5,5.9C151.4,899.9,151.7,899.7,151.9,899.9z"/>
	<path id="XMLID_12_" class="st1" d="M151.9,899.9c0.3,0.2,0.3,0.6,0.3,0.7c0,0.8,2.1,5,6.1,8.5c3,2.6,8.9,6.4,11,4.7
		c0.4-0.3,0.5-0.7,0.6-1c0.9-3-3.5-6.8-4.8-7.9c-4.3-3.7-6.7-5.8-7.7-6.5c-0.1-0.1-0.6-0.4-0.7-0.8c-0.1-0.4,0.1-0.5,0.2-0.8
		c0.1-0.8-1.3-1.8-2.3-2.2c-0.8-0.3-2.5-1.1-3.7-0.3c-1.8,1.3-0.7,5.4,0.3,5.6C151.3,899.9,151.6,899.7,151.9,899.9z"/>
</g>
</svg>
