<?xml version="1.0" encoding="utf-8"?>
<!-- Generator: Adobe Illustrator 19.0.0, SVG Export Plug-In . SVG Version: 6.00 Build 0)  -->
<svg version="1.1" id="Layer_1" xmlns="http://www.w3.org/2000/svg" xmlns:xlink="http://www.w3.org/1999/xlink" x="0px" y="0px"
	 viewBox="0 0 475.4 286" style="enable-background:new 0 0 475.4 286;" xml:space="preserve">
<style type="text/css">
	.st0{fill:none;stroke:#000000;stroke-width:8;stroke-miterlimit:10;}
</style>
<g>
	<g>
		<g>
			<path d="M65.9,282.5c-1.3,0-2.7-0.3-4-1.1c-1.3-0.8-2.9-2.4-3.6-5.6c-2.6-13.5-9.5-24.9-16.9-36.9c-2.1-3.5-4.4-7.2-6.5-10.9
				c-9.6-16.9-18.8-35.6-21.9-57c-1.7-11.8-2.2-25.6,6.4-38.4c0.2-0.3,0.5-1.6,0.2-3.3c-4.9-31.4-9.3-59-13.4-84.3
				c-1.1-6.6,3-8.7,6.1-9.7c29.8-9.2,61.4-19.1,92.8-29.2c6.4-2.1,10.8-0.2,13.3,5.8C125,27.2,132,43.5,140,62c1.3,3,2.6,6,3.9,9
				c2.4,5.5,4.9,11.1,7.2,16.8c1.8,4.6,5.6,8.2,12.1,11.7c3.3,1.7,5.7,2.5,8.4,3.4c0.7,0.2,1.4,0.5,2.2,0.8
				c15.8,5.5,26.6,7.9,36.1,10l2.5,0.6c4.9,1.1,15.3,2.9,20.4,3.4c6.1,0.5,11,0.8,17,0.8c0,0,0,0,0,0c4.3,0,12-0.3,18.2-0.5
				c2.9-0.1,5.5-0.2,7.4-0.3l0,0c14.1-0.4,28.4-2,42.3-3.6l4.2-0.5c18.6-2.1,34.4,6.9,43.3,24.6c2.5,4.9,4.1,10.2,5.6,15.3
				c0.5,1.8,1.1,3.6,1.7,5.4c0.9,2.7,1.7,5.4,2.5,8.1c1,3.3,2,6.7,3.1,9.9c1,2.9,1,5.4,0,7.5c-1,2-2.8,3.4-5.3,4.3
				c-2.3,0.8-4.6,1.5-6.8,2.3c-5.2,1.8-10.6,3.6-16,5.2c-14.1,4.4-28.2,8.7-42.3,13c-26.9,8.3-54.8,16.8-82.1,25.4
				c-6.6,2.1-12.4,1.7-19.3-1.3c-16.9-7.2-30-12.1-42.5-15.9c-7.8-2.3-15.6-1-21.6,3.7c-6.2,4.9-9.5,12.7-9,21.3
				c0.2,3.5,0.8,7,1.4,10.7c0.3,1.8,0.6,3.7,0.9,5.7l0.5,3.4l-18.1,5.4c-15.6,4.7-31.8,9.6-47.8,14.3
				C69.1,282.1,67.6,282.5,65.9,282.5z M14.2,43.3c0,0.1,0,0.3,0.1,0.5c4.2,25.4,8.6,53,13.4,84.4c0.2,1.3,0.7,5.7-1.5,8.9
				c-7.1,10.6-6.6,22.5-5.1,32.8c2.8,20.1,11.7,37.9,20.9,54.2c2,3.6,4.2,7.2,6.3,10.7c7.4,12.1,15,24.6,17.9,39.6
				c0,0.1,0,0.1,0,0.1c0.3,0,0.8-0.1,1.5-0.4c15.9-4.7,32.1-9.6,47.7-14.3l11.5-3.5c-0.1-0.7-0.2-1.4-0.3-2.1
				c-0.6-4-1.3-7.7-1.5-11.6c-0.7-11.3,3.7-21.5,12-28c8-6.3,18.5-8.2,28.8-5.1c12.8,3.9,26.2,8.9,43.3,16.2c5.2,2.2,9.1,2.5,13.8,1
				c27.4-8.6,55.2-17.1,82.2-25.4c14.1-4.3,28.2-8.7,42.3-13c5.3-1.6,10.6-3.4,15.8-5.2c2.3-0.8,4.6-1.5,6.9-2.3
				c0.3-0.1,0.5-0.2,0.6-0.3c0-0.2-0.1-0.6-0.3-1.2c-1.2-3.4-2.2-6.9-3.2-10.2c-0.8-2.6-1.6-5.3-2.4-7.9c-0.6-1.8-1.2-3.7-1.7-5.6
				c-1.5-5-3-9.7-5.1-14.1c-7.3-14.5-20.2-21.9-35.3-20.3l-4.2,0.5c-14,1.6-28.5,3.2-42.9,3.6l0,0c-2,0.1-4.5,0.2-7.4,0.3
				c-6.6,0.3-14.1,0.5-18.6,0.5c0,0,0,0,0,0c-6.2,0-11.3-0.3-17.6-0.8c-5.6-0.5-16.3-2.4-21.5-3.5l-2.5-0.6c-9.2-2-20.7-4.6-37-10.2
				c-0.7-0.3-1.4-0.5-2.1-0.7c-2.9-1-5.7-1.9-9.5-3.9c-5.2-2.7-12.5-7.3-15.9-15.8c-2.2-5.5-4.7-11.1-7-16.5c-1.3-3-2.7-6-4-9.1
				c-8-18.5-14.9-34.9-21.4-50c-0.9-2-0.9-2.2-3.5-1.3C76.3,24,44.6,33.9,14.9,43.1C14.6,43.2,14.3,43.3,14.2,43.3z"/>
		</g>
		<g>
			<path d="M417.1,198.7c-2-2.2-7.6-4.4-9-6.8c-3-5.5-4.4-7.9-6.8-13.5c-8.4-19.9-0.9-40.3,18.3-49.4c6.9-3.3,14.2-5.7,21.3-8.1
				c1.4-0.5,2.8-0.9,4.2-1.4c-0.9-0.2-1.8-0.4-2.7-0.5c-8.5-1.7-17.2-3.5-25.7-5.9c-20.9-6-33.4-18.6-37.2-37.5
				c-2.9-14.4,1.3-27.5,5.2-37.4c0.7-1.9,1.5-3.7,2.2-5.6c-7,4.2-13.6,8.2-20.5,11.7c-16,8.1-31.3,8.4-45.4,1
				c-9-4.8-11.5-11.1-11.5-11.1l0,0c0,0,6.2-0.8,15.2,4c11.8,6.3,24.2,5.9,38-1c6.7-3.4,13.3-7.3,20.2-11.5c3.2-1.9,6.5-3.9,10-6
				l10-5.8l-6.6,16.6c-1.5,3.8-2.9,7.3-4.3,10.7c-3.5,8.8-7.2,20.4-4.7,32.8c3.1,15.9,13.5,26.1,31.5,31.3
				c8.2,2.3,16.8,4.1,25.1,5.8c3.8,0.8,7.8,1.6,11.7,2.5l0.6,0.1c0.8,0.2,1.9,0.4,4.4,1L473,118l-12,4.3c-1.2,0.4-3,1.1-4.6,1.7
				l-3.3,1.2c-3.2,1.2-6.5,2.2-9.6,3.3c-6.8,2.3-13.9,4.6-20.3,7.7c-15.4,7.4-21.2,23.1-14.4,39.1c2.2,5.2,3.5,7.5,6.4,12.7
				C416.5,190.5,416.4,196.1,417.1,198.7L417.1,198.7z"/>
		</g>
		<g>
			<path class="st0" d="M405.8,122.1"/>
		</g>
	</g>
</g>
</svg>
