<?xml version="1.0" encoding="utf-8"?>
<!-- Generator: Adobe Illustrator 19.0.0, SVG Export Plug-In . SVG Version: 6.00 Build 0)  -->
<svg version="1.1" id="Wheel" xmlns="http://www.w3.org/2000/svg" xmlns:xlink="http://www.w3.org/1999/xlink" x="0px" y="0px"
	 viewBox="0 0 64 64" style="enable-background:new 0 0 64 64;" xml:space="preserve">
<path id="XMLID_15_" d="M7.1,32c0-2.3,0.3-4.6,0.9-6.7l-6.8-2.2C0.4,26,0,29,0,32c0,3,0.4,6,1.3,8.9L8,38.7
	C7.4,36.6,7.1,34.3,7.1,32z"/>
<path id="XMLID_16_" d="M8.7,40.6l-6.8,2.2c2,5.7,5.7,10.7,10.5,14.5l4.2-5.8C13,48.7,10.2,44.9,8.7,40.6z"/>
<path id="XMLID_17_" d="M55.3,40.6c-1.6,4.3-4.3,8.1-7.9,10.9l4.2,5.8c4.8-3.7,8.5-8.8,10.5-14.5L55.3,40.6z"/>
<path id="XMLID_18_" d="M56.9,32c0,2.3-0.3,4.6-0.9,6.7l6.8,2.2C63.6,38,64,35,64,32c0-3-0.4-6-1.3-8.9L56,25.3
	C56.6,27.4,56.9,29.7,56.9,32z"/>
<path id="XMLID_20_" d="M31,56.9c-4.6-0.2-9-1.6-12.8-4.2L14,58.5c5,3.4,10.9,5.3,17,5.5V56.9z"/>
<path id="XMLID_22_" d="M45.8,52.7c-3.8,2.6-8.2,4-12.8,4.2V64c6.1-0.2,11.9-2.1,17-5.5L45.8,52.7z"/>
<path id="XMLID_23_" d="M55.3,23.4l6.8-2.2c-2-5.7-5.7-10.7-10.5-14.5l-4.2,5.8C51,15.3,53.8,19.1,55.3,23.4z"/>
<path id="XMLID_24_" d="M33,7.1c4.6,0.2,9,1.6,12.8,4.2L50,5.5c-5-3.4-10.9-5.3-17-5.5V7.1z"/>
</svg>
