<?xml version="1.0" encoding="utf-8"?>
<!-- Generator: Adobe Illustrator 19.0.0, SVG Export Plug-In . SVG Version: 6.00 Build 0)  -->
<svg version="1.1" id="Wheel" xmlns="http://www.w3.org/2000/svg" xmlns:xlink="http://www.w3.org/1999/xlink" x="0px" y="0px"
	 viewBox="0 0 64 64" style="enable-background:new 0 0 64 64;" xml:space="preserve">
<path id="XMLID_18_" d="M56.9,32c0,2.3-0.3,4.6-0.9,6.7l6.8,2.2C63.6,38,64,35,64,32c0-3-0.4-6-1.3-8.9L56,25.3
	C56.6,27.4,56.9,29.7,56.9,32z"/>
<path id="XMLID_23_" d="M55.3,23.4l6.8-2.2c-2-5.7-5.7-10.7-10.5-14.5l-4.2,5.8C51,15.3,53.8,19.1,55.3,23.4z"/>
<path id="XMLID_24_" d="M33,7.1c4.6,0.2,9,1.6,12.8,4.2L50,5.5c-5-3.4-10.9-5.3-17-5.5V7.1z"/>
</svg>
