<?xml version="1.0" encoding="utf-8"?>
<!-- Generator: Adobe Illustrator 19.0.0, SVG Export Plug-In . SVG Version: 6.00 Build 0)  -->
<svg version="1.1" id="Layer_1" xmlns="http://www.w3.org/2000/svg" xmlns:xlink="http://www.w3.org/1999/xlink" x="0px" y="0px"
	 viewBox="-267 525 1000 1000" style="enable-background:new -267 525 1000 1000;" xml:space="preserve">
<style type="text/css">
	.st0{fill:#010101;}
	.st1{fill:#FFFFFF;}
</style>
<g>
	<path id="XMLID_17_" class="st0" d="M208.6,972.7c0.2,0.5,0.4,0.6,0.6,0.7c0.4,0.1,0.6,0,1.3,0.2c0.3,0.1,0.5,0.3,1,0.3
		c0.1,0,0.8,0.1,1.4-0.4c0.4-0.4,0.3-0.8,0.3-1.6c0-0.5-0.1-0.9-0.2-1.1c-0.1-0.4-0.2-0.6-0.4-0.7c-0.5-0.3-1.2,0-1.5,0.2
		c-0.4,0.2-0.8-0.1-1.2,0.3C209.2,971.1,208.4,972.1,208.6,972.7z"/>
	<path id="XMLID_16_" class="st1" d="M208.6,972.2c0,0.3,0.1,0.8,0.4,1c0.3,0.2,0.6,0,1.3,0.2c0.6,0.1,0.5,0.3,1,0.4
		c0.1,0,0.9,0.1,1.4-0.4c0.4-0.4,0.4-0.9,0.3-1.7c0-0.6-0.1-1-0.2-1.2c-0.1-0.4-0.2-0.6-0.4-0.8c-0.5-0.3-1.2,0-1.6,0.2
		c-0.4,0.2-0.6,0.4-1.1,0.8C209,971.5,208.7,971.8,208.6,972.2z"/>
</g>
</svg>
