<?xml version="1.0" encoding="utf-8"?>
<!-- Generator: Adobe Illustrator 19.0.0, SVG Export Plug-In . SVG Version: 6.00 Build 0)  -->
<svg version="1.1" id="Layer_1" xmlns="http://www.w3.org/2000/svg" xmlns:xlink="http://www.w3.org/1999/xlink" x="0px" y="0px"
	 viewBox="-267 525 1000 1000" style="enable-background:new -267 525 1000 1000;" xml:space="preserve">
<style type="text/css">
	.st0{fill:#010101;}
	.st1{fill:#FFFFFF;}
</style>
<g>
	<path id="XMLID_15_" class="st0" d="M212.7,968.9c0.1,0.3,0.3,0.4,0.4,0.4c0.2,0.1,0.4,0,0.7,0.1c0.2,0.1,0.3,0.2,0.6,0.2
		c0.1,0,0.5,0.1,0.8-0.2c0.2-0.2,0.2-0.5,0.2-0.9c0-0.3-0.1-0.5-0.1-0.7c-0.1-0.2-0.1-0.3-0.2-0.4c-0.3-0.2-0.7,0-0.9,0.1
		c-0.2,0.1-0.5,0-0.8,0.2C213,968,212.6,968.5,212.7,968.9z"/>
	<path id="XMLID_14_" class="st1" d="M212.8,968.6c0,0.2,0.1,0.4,0.2,0.6c0.2,0.1,0.3,0,0.7,0.1c0.3,0.1,0.3,0.2,0.6,0.2
		c0.1,0,0.5,0.1,0.8-0.2c0.2-0.2,0.2-0.5,0.2-0.9c0-0.3-0.1-0.5-0.1-0.7c-0.1-0.2-0.1-0.4-0.3-0.4c-0.3-0.2-0.7,0-0.9,0.1
		c-0.2,0.1-0.4,0.2-0.6,0.5C213,968.2,212.8,968.3,212.8,968.6z"/>
</g>
</svg>
