<?xml version="1.0" encoding="utf-8"?>
<!-- Generator: Adobe Illustrator 19.0.0, SVG Export Plug-In . SVG Version: 6.00 Build 0)  -->
<svg version="1.1" id="hair_1_" xmlns="http://www.w3.org/2000/svg" xmlns:xlink="http://www.w3.org/1999/xlink" x="0px" y="0px"
	 viewBox="0 0 109 90.8" style="enable-background:new 0 0 109 90.8;" xml:space="preserve">
<g>
	<path d="M87.3,45C87.3,45.4,87.4,44.5,87.3,45L87.3,45z"/>
	<path d="M87.3,38.3C87,32.6,85.7,27,83,21.9c-2.5-4.8-6-8.6-10.9-11c-1.9-0.9-3.8-1.2-5.9-0.4c-0.6,0.2-1.4,0.3-2,0
		C57.9,8,51.5,8.9,45.4,11.1c-14.5,5.1-21.9,16-24.1,30.8c-0.2,1-0.4,2-0.5,3.1c-0.2,2.2-0.2,4.5,0,6.7c0.4,5,2,9.9,4.6,14.3
		c3.6,6,8.7,9.6,15.7,10.3c0.3,0,1.1,0.1,1.7,0c-6.6-4.2-8.2-9.7-6-16.8c0.6,0.7,1,1.2,1.4,1.9l0.7,0.9c0,0-0.3-1.2-0.4-1.6
		c-1.3-5.8,1.5-10.6,4.8-15c5.1-6.6,10.5-12.9,15.9-19.4c4,0.7,7.2,2.7,9.4,6c4.2,6.2,7,13.2,6.9,20.8c0,2.5-0.3,6.1-1.5,10.6
		c-0.3,1.2-2.1,6.6-2.1,6.6l-1.6,4.5c0,0,3-2.1,3.6-2.5c2.5-2,3.2-2.8,5.3-5.3c4.9-6,7.3-14.4,7.9-22.1
		C87.5,42.7,87.4,40.5,87.3,38.3z"/>
</g>
</svg>
