<?xml version="1.0" encoding="utf-8"?>
<!-- Generator: Adobe Illustrator 19.0.0, SVG Export Plug-In . SVG Version: 6.00 Build 0)  -->
<svg version="1.1" id="hair_1_" xmlns="http://www.w3.org/2000/svg" xmlns:xlink="http://www.w3.org/1999/xlink" x="0px" y="0px"
	 viewBox="0 0 109 90.8" style="enable-background:new 0 0 109 90.8;" xml:space="preserve">
<path d="M83.2,40.9c-0.3-5.7-1.5-11.2-3.9-16.3c-2.2-4.8-5.3-8.6-9.7-11c-1.7-0.9-3.4-1.2-5.3-0.4c-0.5,0.2-1.2,0.3-1.8,0
	c-5.7-2.6-11.3-1.7-16.8,0.5c-12.9,5.1-19.5,16-21.5,30.8c-0.1,1-0.3,2-0.4,3.1c-0.1,2.2-0.2,4.5,0,6.7c0.4,5,1.8,9.9,4.1,14.3
	c3.2,6,7.8,9.6,14,10.3c0.3,0,1,0.1,1.5,0c-5.9-4.2-7.3-9.7-5.3-16.8c0.5,0.7,0.9,1.2,1.3,1.9l0.6,0.9c0,0-0.3-1.2-0.4-1.6
	c-1.2-5.8,1.3-10.6,4.3-15c4.5-6.6,9.4-12.9,14.2-19.4c3.5,0.7,6.4,2.7,8.4,6c3.8,6.2,6.2,13.2,6.1,20.8c0,2.5-0.2,6.1-1.3,10.6
	c-0.3,1.2-1.9,6.6-1.9,6.6l-1.4,4.5c0,0,2.7-2.1,3.2-2.5c2.2-2,2.9-2.8,4.7-5.3c4.3-6,6.5-14.4,7.1-22.1
	C83.3,45.4,83.3,43.2,83.2,40.9z"/>
</svg>
