<?xml version="1.0" encoding="utf-8"?>
<!-- Generator: Adobe Illustrator 19.0.0, SVG Export Plug-In . SVG Version: 6.00 Build 0)  -->
<svg version="1.1" id="hair_1_" xmlns="http://www.w3.org/2000/svg" xmlns:xlink="http://www.w3.org/1999/xlink" x="0px" y="0px"
	 viewBox="0 0 273.4 583" style="enable-background:new 0 0 273.4 583;" xml:space="preserve">
<g>
	<path d="M143.9,76.1C143.8,76.2,143.8,76.2,143.9,76.1L143.9,76.1z"/>
	<path d="M143.9,76.1C143.9,76.1,143.9,76.1,143.9,76.1C143.9,76.1,143.9,76.1,143.9,76.1z"/>
	<path d="M145.6,79.3C145.7,79.2,145.7,79.2,145.6,79.3L145.6,79.3z"/>
	<path d="M141.1,76C141.1,76.1,141.1,76.1,141.1,76L141.1,76z"/>
	<path d="M174.8,68.6c-0.2-0.8-0.2-1.6-0.5-2.3c-0.5-1.2-1.1-2.3-1.8-3.4c-1-1.6-0.9-3.7-2.6-4.9c0,0,0-0.1,0-0.2
		c0.3,0,0.7-0.2,1-0.2c-0.7-0.4-1.4-0.9-2.1-1.3c0.2-0.2,0.4-0.3,0.3-0.3c-0.9-0.4-1.8-0.8-2.8-1.2c0.3-0.5,0.5-1.1,0.8-1.7
		c-0.4,0.2-0.8,0.3-1.1,0.5c-0.9,0.5-1.7,0.2-2-0.8c-0.1-0.2-0.1-0.5-0.1-0.9c-1.4,1-2.6,0.8-3.4-0.5c-0.4,0.2-0.7,0.4-1.2,0.7
		c-0.1-0.5-0.1-0.9-0.1-1.2c-0.4,0.3-0.9,0.5-1.3,0.8c0-0.1,0-0.3,0-0.4c-0.5-0.3-1-0.6-1.5-0.9c-0.8-0.4-1.5-0.7-2.3-1
		c0.1,0.6,0.1,0.9,0.2,1.3c-0.4,0-0.8,0.2-1.1,0.1c-0.8-0.2-1.5-0.5-2.3-0.7c-3-0.6-6.2-0.7-9.2-1.3c0.6,0.3,1.3,1,1.9,1.2
		c-1.8-0.5-3,0.8-4.5,1c-1.3,0.1-2.6-0.1-4.1-0.1c0.9,0.4,1.7,0.8,2.5,1.2c-1.8-0.8-3.5-0.2-5.3-0.1c0.6,0.3,1,0.5,1.5,0.8
		c-0.7,0.3-1.4,0.5-1.9,0.9c-1.2,0.8-2.4,1.7-3.6,2.6c0,0,0,0.1,0,0.2c0.3,0,0.7,0.1,1.2,0.2c-0.7,0.5-1.3,0.8-1.8,1.3
		c-0.2,0.2-0.3,0.4-0.4,0.7c-0.1,0.3-0.1,0.8-0.3,1c-0.5,0.4-1.1,0.8-1.7,1.1c0.1,0.1,0.2,0.1,0.3,0.2c-0.5,0.8-1,1.7-1.6,2.7
		c-0.1,0-0.4,0-0.8,0.1c0.4,0.3,0.6,0.5,1,0.9c-2.3,0.7-2,1.1-3,3.1c0.6-0.1,1.1-0.1,1.6-0.1c-0.6,1.3-1.1,2.3-1.6,3.4
		c0.6-0.8,1.2-1.8,2.6-1.8c-0.4,0.7-0.7,1.2-1.1,1.9c1.2-0.2-1,1.2-1,1.9c-0.1,2.1-0.2,4.1-0.2,6.2c0,0.9,0.3,1.8,0.4,2.7
		c0.1,0.9,0,1.8,0,3.1c1.7-2.1,1.8-0.2,2.3,0.4c0.6-0.8,1.1-1.5,1.5-2.2c0.1-0.2,0.2-0.5,0.1-0.8c-0.3-1.9,0.4-3.2,2-4
		c0.2-0.1,0.3-0.2,0.5-0.4c0.7-0.7,1.4-1.3,2.2-2c0.6,0.7,1.2,1.2,1.6,1.8c-0.1-0.5-0.2-1.1-0.3-1.8c1,1.3,1.8,2.3,2.6,3.3
		c-0.2-0.7-0.2-1.6-0.4-2.3c0.1,0,0.2,0,0.3-0.1c0.8,1,1.8,1.7,2.7,2.7c-0.3-0.5-0.6-1-1.1-1.8c0.7,0.3,1.1,0.5,1.7,0.8
		c-0.4-0.9-0.7-1.6-1-2.5c0.6,0.2,1,0.4,1.5,0.6c-0.3-0.8-0.6-1.5-0.9-2.1c0.1,0,0.2-0.1,0.3-0.1c0.3,0.4,0.7,0.8,1.1,1.3
		c0.1-0.7,0.2-1.2,0.3-1.6c0.1,0,0.2,0,0.3,0c0.2,0.4,1.9,1.6,2,1.8c0,0,0,0-0.1,0c0,0,0,0,0.1,0c0.1,0,0.1,0.1,0.1,0.1
		c0,0-0.1,0-0.1-0.1c0-0.2,0-0.5,0-0.9c0.7,0.8,2.5,0.5,3,1.1c0,0,0,0,0,0c0,0,0,0,0,0c0.3-0.2,0.1-0.1,0,0
		c-0.1-0.2-0.2-0.5-0.2-0.7c0.1,0,0.2-0.1,0.3-0.1c0.5,1.3,1,2.7,1.5,4c-0.1,0-0.1,0,0,0c0,0,0,0,0.1,0c0,0,0,0-0.1,0
		c0.1-0.6,1.4-1.3,1.6-2.2c0.7,0.8,1,1.4,1.5,1.9c0.4,0.4,0.9,0.8,1.4,1.2c-1.1-0.9-1.4-2.2-0.9-3.9c0.4,0.9,0.7,1.6,1.1,2.3
		c0.1-0.3,0.2-0.4,0.4-0.9c1.8,3.4,4.2,5.8,7.8,6.7c-0.1-0.7-0.3-1.3-0.4-1.9c0.1,0,0.2-0.1,0.3-0.1c0.4,0.3,0.7,0.6,1.2,1
		c-0.1-0.7-0.2-1.2-0.2-1.9c1.3,0.2,1.9,0.9,2.3,1.9c0.2,0.7,0.5,1.5,1,2c1.6,1.4,2.3,3.3,2.4,5.3c0.1,3,0.1,5.9,0.2,8.9
		c0,0.3,0.2,0.7,0.4,1c0.3-0.2,0.7-0.3,1-0.5c0.3-0.2,0.5-0.5,0.7-0.8c1-2,2-4,3.1-5.9c0.2-0.4,0.7-0.7,1.1-1.1
		c0.3-0.9,0.7-2.1,1.2-3.1c0.2-0.4,1-0.6,1.1-1c0.5-1.5,1.7-2.9,1.2-4.7c-0.1-0.3,0.1-0.6,0.1-0.9C175.9,77.8,175.7,73.2,174.8,68.6
		z"/>
	<path d="M140.9,75.9C140.8,75.9,140.8,75.9,140.9,75.9L140.9,75.9z"/>
</g>
</svg>
