<?xml version="1.0" encoding="utf-8"?>
<!-- Generator: Adobe Illustrator 19.0.0, SVG Export Plug-In . SVG Version: 6.00 Build 0)  -->
<svg version="1.1" id="Layer_1" xmlns="http://www.w3.org/2000/svg" xmlns:xlink="http://www.w3.org/1999/xlink" x="0px" y="0px"
	 viewBox="-267 525 1000 1000" style="enable-background:new -267 525 1000 1000;" xml:space="preserve">
<style type="text/css">
	.st0{fill:#010101;}
	.st1{fill:#FFFFFF;}
</style>
<g>
	<path id="XMLID_19_" class="st0" d="M208.4,976.7c0.3,0.8,0.7,1,1,1.1c0.6,0.2,1-0.1,2,0.3c0.5,0.1,0.8,0.5,1.6,0.5
		c0.1,0,1.2,0.2,2.1-0.7c0.6-0.5,0.5-1.3,0.5-2.5c0-0.8-0.2-1.4-0.3-1.7c-0.2-0.6-0.3-0.9-0.7-1.1c-0.7-0.5-1.8,0-2.4,0.3
		c-0.6,0.3-1.1-0.1-1.8,0.5C209.4,974.3,208,975.7,208.4,976.7z"/>
	<path id="XMLID_18_" class="st1" d="M208.4,976c0,0.5,0.2,1.2,0.7,1.6c0.5,0.4,0.9,0,2,0.3c0.9,0.2,0.8,0.5,1.6,0.6
		c0.2,0,1.5,0.2,2.3-0.6c0.6-0.6,0.6-1.4,0.6-2.7c0-0.9-0.2-1.5-0.3-1.9c-0.2-0.6-0.4-1-0.7-1.2c-0.8-0.5-2,0.1-2.5,0.3
		c-0.7,0.3-1,0.7-1.8,1.3C209,974.8,208.4,975.3,208.4,976z"/>
</g>
</svg>
