<?xml version="1.0" encoding="utf-8"?>
<!-- Generator: Adobe Illustrator 19.0.0, SVG Export Plug-In . SVG Version: 6.00 Build 0)  -->
<svg version="1.1" id="Layer_1" xmlns="http://www.w3.org/2000/svg" xmlns:xlink="http://www.w3.org/1999/xlink" x="0px" y="0px"
	 viewBox="-267 525 1000 1000" style="enable-background:new -267 525 1000 1000;" xml:space="preserve">
<style type="text/css">
	.st0{fill:#010101;}
	.st1{fill:#FFFFFF;}
</style>
<g>
	<path id="XMLID_468_" class="st0" d="M207.2,983.4c0.4,1.1,0.9,1.3,1.3,1.4c0.8,0.2,1.2-0.1,2.6,0.3c0.6,0.2,1,0.7,2,0.7
		c0.2,0,1.6,0.3,2.8-0.8c0.7-0.7,0.7-1.7,0.7-3.2c0-1.1-0.2-1.9-0.4-2.3c-0.3-0.8-0.4-1.2-0.9-1.5c-0.9-0.6-2.4,0-3.1,0.4
		c-0.8,0.4-1.4-0.2-2.3,0.7C208.5,980.3,206.8,982.1,207.2,983.4z"/>
	<path id="XMLID_467_" class="st1" d="M207.2,982.5c0,0.7,0.2,1.6,0.9,2c0.7,0.5,1.2,0,2.7,0.4c1.2,0.3,1.1,0.7,2,0.8
		c0.2,0,1.9,0.3,3-0.8c0.8-0.8,0.7-1.9,0.7-3.5c0-1.2-0.3-2-0.4-2.4c-0.3-0.8-0.5-1.3-0.9-1.6c-1-0.7-2.6,0.1-3.3,0.4
		c-0.8,0.4-1.3,0.8-2.3,1.7C208,980.9,207.3,981.6,207.2,982.5z"/>
</g>
</svg>
