<?xml version="1.0" encoding="utf-8"?>
<!-- Generator: Adobe Illustrator 19.0.0, SVG Export Plug-In . SVG Version: 6.00 Build 0)  -->
<svg version="1.1" id="Layer_1" xmlns="http://www.w3.org/2000/svg" xmlns:xlink="http://www.w3.org/1999/xlink" x="0px" y="0px"
	 viewBox="-267 525 1000 1000" style="enable-background:new -267 525 1000 1000;" xml:space="preserve">
<style type="text/css">
	.st0{fill:#FFFFFF;}
</style>
<path id="Arm_Left_Thumb_Down_1_" class="st0" d="M373,792.3c1.6,0.6,1,0.5,5.8,2.8c1.3,0.6,3.3,1.6,5.7,2.6
	c1.9,1.5,3.6,2.1,4.8,2.5c3,0.8,5.3,0.3,6.5,1.9c0.6,0.9,0.8,1.9,0.8,1.9c0.3,0.5,0.6,1.2,0.8,2.1c0.1,0.8,0.1,1.4,0.2,1.5
	c0.2,0,0.6-0.7,0.6-1.5c0-0.9-0.4-1.4-0.2-1.6c0.2-0.2,0.6,0.2,1,0c0.9-0.3,1-2.3,1-2.6c0-0.8,0-1.7-0.5-2.2
	c-0.7-0.7-1.7-0.2-3.2-0.1c-1.5,0.1-3.3-0.8-7-2.4c-1.7-0.7-2.5-1.1-3.6-1.8c-2.1-1.2-3.7-2.6-4.7-3.5c-4.2-3-5.7-4-6.1-4.1
	c-0.1,0-0.5-0.1-1-0.4c-0.1-0.1-0.3-0.1-0.5-0.3c-1.9,0.5-3,1-3.8,1.5c-0.6,0.4-1.1,0.9-1,1.4C368.5,791,370.3,791.2,373,792.3z"/>
</svg>
