<?xml version="1.0" encoding="utf-8"?>
<!-- Generator: Adobe Illustrator 19.0.0, SVG Export Plug-In . SVG Version: 6.00 Build 0)  -->
<svg version="1.1" id="Layer_1" xmlns="http://www.w3.org/2000/svg" xmlns:xlink="http://www.w3.org/1999/xlink" x="0px" y="0px"
	 viewBox="-267 525 1000 1000" style="enable-background:new -267 525 1000 1000;" xml:space="preserve">
<style type="text/css">
	.st0{fill:#FFFFFF;}
	.st1{fill:#010101;}
</style>
<g>
	<path id="XMLID_304_" class="st0" d="M234.7,1121.1c0,0-4.2,5.7-4.4,9.6c-0.6,9.6,2.7,21.7,6.2,30.6c1.2,9.9,2.4,19.7,2.8,29.6
		l1.8,0c0.4-8.5,6.3-15.9,3.2-25.7c2.2-9.2,1-11.5,0.2-25.8c-0.9,15.1,0.7,17.7,2.3,24.8c-2.5,9.3,2.8,17.5,3,26.8h2.6
		c0-9.4,2.6-15.2,1.4-27.1c3.8-11.2,7.4-24.9,6.7-35c-0.3-4.1-5.8-8.1-5.8-8.1L234.7,1121.1"/>
	<path id="XMLID_303_" class="st1" d="M244.9,1155.9c-1.6-6.4-3.3-16.1-2.7-23.5C242.1,1139.6,243.5,1149.4,244.9,1155.9z"/>
</g>
</svg>
