<?xml version="1.0" encoding="utf-8"?>
<!-- Generator: Adobe Illustrator 19.0.0, SVG Export Plug-In . SVG Version: 6.00 Build 0)  -->
<svg version="1.1" id="Layer_1" xmlns="http://www.w3.org/2000/svg" xmlns:xlink="http://www.w3.org/1999/xlink" x="0px" y="0px"
	 viewBox="-267 525 1000 1000" style="enable-background:new -267 525 1000 1000;" xml:space="preserve">
<style type="text/css">
	.st0{fill:#FFFFFF;}
	.st1{fill:#010101;}
</style>
<g>
	<path id="XMLID_306_" class="st0" d="M263.9,1116.7c0,0-2.7,7.6-3,11.5c-0.6,9.6,2.6,19.8,6.1,28.8c1.2,9.9,1,19.7,1.4,29.7h1.8
		c0.4-8.2,5.4-16.6,2.6-25.8c2-8.7,1.6-11.6,0.8-25.6c-0.9,15.1,2.7,17.5,4.2,24.6c-2.5,9.3,0.9,17.7,1,27h2.6
		c0-9.4,2.5-15.2,1.2-27c3.8-11.2,4.1-21,3.3-31.2c-0.3-4.2-2.3-12.1-2.3-12.1L263.9,1116.7"/>
	<path id="XMLID_305_" class="st1" d="M274.8,1149.8c-1.6-6.4-3.6-15.5-3-22.8C271.7,1134.1,273.3,1143.3,274.8,1149.8z"/>
</g>
</svg>
