<?xml version="1.0" encoding="utf-8"?>
<!-- Generator: Adobe Illustrator 19.0.0, SVG Export Plug-In . SVG Version: 6.00 Build 0)  -->
<svg version="1.1" id="Layer_1" xmlns="http://www.w3.org/2000/svg" xmlns:xlink="http://www.w3.org/1999/xlink" x="0px" y="0px"
	 viewBox="-267 525 1000 1000" style="enable-background:new -267 525 1000 1000;" xml:space="preserve">
<style type="text/css">
	.st0{fill:#010101;}
	.st1{fill:#FFFFFF;}
</style>
<g>
	<path id="XMLID_418_" class="st0" d="M204.5,861.5c-8,0-24.2,12.9-28.3,17.3c-7.3,7.7-4.3,12.9-1.8,20.1c5.2,3.2,18.7,4.8,22.3-4.8
		c3.1,14.2,24.5,13,27.9,4.2c4.2-10.5-2.7-19.7-3.8-20.9C214.7,870.9,212.4,861.5,204.5,861.5"/>
	<path id="XMLID_417_" class="st1" d="M205.5,859.2c-8,0-22.4,14-26.9,17.7c-7.7,6.5-10,15.1-4.2,22c3.6,4.4,18.5,3.4,22.3-4.8
		c4.7,14.5,21.2,13,27.9,4.2c4.8-6.4-0.3-13.7-1.7-21.6C221.3,867.9,213.3,859.2,205.5,859.2"/>
	<path id="XMLID_416_" class="st0" d="M197.6,884.5c0.3-2.2,2.3-5.4,7.8-11.5C201.7,878.6,198.5,881.1,197.6,884.5z"/>
	<path id="XMLID_415_" class="st0" d="M196.6,886c0.7-1.9,0.4-5.2-1.4-12.3C195.9,879.6,197.3,882.9,196.6,886z"/>
	<path id="XMLID_413_" class="st0" d="M212.3,860.3c2,1,4.5,3.8,8.7,10.9C216.8,866,215.3,862.2,212.3,860.3z"/>
</g>
</svg>
