<?xml version="1.0" encoding="utf-8"?>
<!-- Generator: Adobe Illustrator 19.0.0, SVG Export Plug-In . SVG Version: 6.00 Build 0)  -->
<svg version="1.1" id="Layer_1" xmlns="http://www.w3.org/2000/svg" xmlns:xlink="http://www.w3.org/1999/xlink" x="0px" y="0px"
	 viewBox="-267 525 1000 1000" style="enable-background:new -267 525 1000 1000;" xml:space="preserve">
<style type="text/css">
	.st0{fill:#010101;}
	.st1{fill:#FFFFFF;}
</style>
<g>
	<path id="XMLID_11_" class="st0" d="M185.1,928.8c0.1,0.1,0.1,0.3,0.1,0.3c0,0.6,1.2,2.9,2.4,3.9c3.4,3.3,6.7,4.1,6.4,2.6
		c0-0.2,0.3-0.3,0.3-0.5c0.4-1.4-1.7-3.5-4-5.5c-2-1.6-2-1.6-2.5-1.9c-0.1,0-0.2-0.1-0.2-0.3c0-0.2,0.1-0.4,0.1-0.5
		c0.1-0.5-0.6-0.9-1.3-1.2c-0.5-0.3-1.5-0.6-2-0.1c-1.2,0.9-0.3,3.4,0.3,3.1C184.8,928.8,185,928.7,185.1,928.8z"/>
	<path id="XMLID_10_" class="st1" d="M185.1,928.8c0.1,0.1,0.1,0.3,0.1,0.3c0,0.4,1.1,2.6,3.2,4.5c1.6,1.4,4.7,3.4,5.8,2.5
		c0.2-0.2,0.3-0.4,0.3-0.5c0.5-1.6-1.9-3.6-2.5-4.2c-2.2-2-3.6-3.1-4.1-3.4c-0.1,0-0.3-0.2-0.3-0.4c0-0.2,0.1-0.3,0.1-0.4
		c0.1-0.4-0.7-0.9-1.2-1.2c-0.4-0.2-1.3-0.6-2-0.1c-1,0.7-0.3,2.9,0.1,2.9C184.8,928.8,185,928.7,185.1,928.8z"/>
</g>
</svg>
