<?xml version="1.0" encoding="utf-8"?>
<!-- Generator: Adobe Illustrator 19.0.0, SVG Export Plug-In . SVG Version: 6.00 Build 0)  -->
<svg version="1.1" id="Layer_1" xmlns="http://www.w3.org/2000/svg" xmlns:xlink="http://www.w3.org/1999/xlink" x="0px" y="0px"
	 viewBox="-267 525 1000 1000" style="enable-background:new -267 525 1000 1000;" xml:space="preserve">
<style type="text/css">
	.st0{fill:#010101;}
	.st1{fill:#FFFFFF;}
</style>
<g>
	<path id="XMLID_9_" class="st0" d="M194.6,938.7c0.1,0.1,0.1,0.2,0.1,0.2c0,0.4,0.9,2,1.7,2.8c2.4,2.3,4.8,2.9,4.5,1.9
		c0-0.2,0.2-0.2,0.2-0.3c0.3-1-1.2-2.5-2.9-3.9c-1.4-1.2-1.4-1.1-1.7-1.3c0,0-0.1-0.1-0.1-0.2c0-0.1,0.1-0.3,0.1-0.4
		c0.1-0.4-0.4-0.6-0.9-0.9c-0.4-0.2-1.1-0.4-1.5-0.1c-0.8,0.7-0.2,2.4,0.2,2.2C194.4,938.7,194.5,938.7,194.6,938.7z"/>
	<path id="XMLID_8_" class="st1" d="M194.6,938.8c0.1,0.1,0.1,0.2,0.1,0.2c0,0.3,0.8,1.9,2.3,3.2c1.1,1,3.4,2.4,4.1,1.8
		c0.1-0.1,0.2-0.3,0.2-0.4c0.3-1.1-1.3-2.5-1.8-3c-1.6-1.4-2.5-2.2-2.9-2.4c0,0-0.2-0.1-0.2-0.3c0-0.1,0-0.2,0.1-0.3
		c0-0.3-0.5-0.7-0.8-0.8c-0.3-0.1-0.9-0.4-1.4-0.1c-0.7,0.5-0.2,2,0.1,2.1C194.4,938.8,194.5,938.7,194.6,938.8z"/>
</g>
</svg>
