<?xml version="1.0" encoding="utf-8"?>
<!-- Generator: Adobe Illustrator 19.0.0, SVG Export Plug-In . SVG Version: 6.00 Build 0)  -->
<svg version="1.1" id="Layer_1" xmlns="http://www.w3.org/2000/svg" xmlns:xlink="http://www.w3.org/1999/xlink" x="0px" y="0px"
	 viewBox="-267 525 1000 1000" style="enable-background:new -267 525 1000 1000;" xml:space="preserve">
<style type="text/css">
	.st0{fill:#010101;}
	.st1{fill:#FFFFFF;}
</style>
<g>
	<path id="XMLID_7_" class="st0" d="M205.1,948.6c0.1,0,0.1,0.1,0.1,0.2c0,0.3,0.4,1.2,1,1.8c1.6,1.4,3,1.8,2.9,1.1
		c0-0.1,0.1-0.2,0.1-0.2c0.1-0.5-0.7-1.6-1.7-2.4c-0.9-0.7-1-0.7-1.2-0.8c0,0-0.1,0-0.1-0.1c0-0.1,0-0.2,0.1-0.2
		c0-0.2-0.3-0.4-0.6-0.5c-0.2-0.1-0.7-0.2-0.9-0.1c-0.5,0.4-0.2,1.6,0.1,1.4C205,948.6,205.1,948.5,205.1,948.6z"/>
	<path id="XMLID_6_" class="st1" d="M205.1,948.6c0.1,0,0.1,0.1,0.1,0.2c0,0.2,0.5,1.2,1.4,2c0.7,0.6,2.1,1.5,2.6,1.1
		c0.1-0.1,0.1-0.2,0.1-0.2c0.2-0.7-0.8-1.6-1.1-1.9c-1-0.9-1.6-1.4-1.8-1.5c0,0-0.1-0.1-0.2-0.2c0-0.1,0-0.1,0-0.2
		c0-0.2-0.3-0.4-0.5-0.5c-0.2-0.1-0.6-0.3-0.8-0.1c-0.4,0.3-0.2,1.3,0.1,1.3C205,948.6,205.1,948.6,205.1,948.6z"/>
</g>
</svg>
