<?xml version="1.0" encoding="utf-8"?>
<!-- Generator: Adobe Illustrator 19.0.0, SVG Export Plug-In . SVG Version: 6.00 Build 0)  -->
<svg version="1.1" id="Layer_1" xmlns="http://www.w3.org/2000/svg" xmlns:xlink="http://www.w3.org/1999/xlink" x="0px" y="0px"
	 viewBox="-267 525 1000 1000" style="enable-background:new -267 525 1000 1000;" xml:space="preserve">
<style type="text/css">
	.st0{fill:#010101;}
	.st1{fill:#FFFFFF;}
</style>
<g>
	<path id="XMLID_13_" class="st0" d="M174.3,919c0.2,0.1,0.2,0.4,0.2,0.4c0,0.8,1.6,3.6,3,5c4.3,4.1,8.5,5.2,8.1,3.3
		c-0.1-0.3,0.4-0.4,0.4-0.6c0.6-1.8-2.1-4.5-5.1-6.9c-2.5-2.1-2.5-2-3.1-2.3c-0.1-0.1-0.2-0.1-0.3-0.4c0-0.2,0.1-0.4,0.2-0.6
		c0.1-0.6-0.8-1.1-1.6-1.5c-0.6-0.3-1.9-0.7-2.6-0.2c-1.5,1.2-0.3,4.3,0.3,4C173.9,919,174.1,918.9,174.3,919z"/>
	<path id="XMLID_12_" class="st1" d="M174.3,919c0.2,0.1,0.2,0.4,0.2,0.4c0,0.6,1.4,3.4,4.1,5.8c2.1,1.8,6.1,4.4,7.4,3.2
		c0.2-0.2,0.3-0.5,0.4-0.7c0.6-2-2.4-4.6-3.3-5.4c-2.9-2.5-4.6-4-5.2-4.4c-0.1-0.1-0.4-0.2-0.4-0.6c0-0.2,0.1-0.4,0.1-0.6
		c0.1-0.6-0.9-1.2-1.6-1.5c-0.5-0.2-1.7-0.7-2.5-0.2c-1.2,0.9-0.4,3.6,0.2,3.8C173.9,919,174.1,918.9,174.3,919z"/>
</g>
</svg>
