<?xml version="1.0" encoding="utf-8"?>
<!-- Generator: Adobe Illustrator 19.0.0, SVG Export Plug-In . SVG Version: 6.00 Build 0)  -->
<svg version="1.1" id="Layer_1" xmlns="http://www.w3.org/2000/svg" xmlns:xlink="http://www.w3.org/1999/xlink" x="0px" y="0px"
	 viewBox="-267 525 1000 1000" style="enable-background:new -267 525 1000 1000;" xml:space="preserve">
<style type="text/css">
	.st0{fill:#FFFFFF;}
</style>
<path id="Butt_1" class="st0" d="M305.3,986.3c0.3-0.1,1,0.4,2.5,1.4c0.7,0.5,1.5,1.3,3.4,2.7c1.4,1.1,2.5,1.9,3.3,3.1
	c0,0,2.2,3.2,1.1,7.8c-0.1,0.4-0.2,0.8-0.2,0.8c-0.2,0.6-0.5,1-0.9,2c-0.7,1.5-0.8,1.8-1,2.4c-0.7,1.4-1.4,1.8-2.5,3.2
	c-0.7,0.8-1.1,1.5-1.4,2.1c-0.9,1.5-1,1.8-1.1,1.8C306.7,1013.6,302.4,987,305.3,986.3z"/>
</svg>
