<?xml version="1.0" encoding="utf-8"?>
<!-- Generator: Adobe Illustrator 19.0.0, SVG Export Plug-In . SVG Version: 6.00 Build 0)  -->
<svg version="1.1" id="Layer_1" xmlns="http://www.w3.org/2000/svg" xmlns:xlink="http://www.w3.org/1999/xlink" x="0px" y="0px"
	 viewBox="-267 525 1000 1000" style="enable-background:new -267 525 1000 1000;" xml:space="preserve">
<style type="text/css">
	.st0{fill:#FFFFFF;}
</style>
<path id="Butt_3" class="st0" d="M311.7,996.3c0.3-0.1,1.2,0.5,3,1.6c0.8,0.5,1.8,1.4,4,3.1c1.7,1.2,3,2.1,4,3.5
	c0,0,2.6,3.6,1.3,8.8c-0.1,0.5-0.3,1-0.3,1c-0.2,0.6-0.6,1.2-1.1,2.3c-0.8,1.7-0.9,2.1-1.2,2.7c-0.8,1.6-1.6,2-3,3.6
	c-0.8,0.9-1.3,1.7-1.7,2.4c-1.1,1.8-1.2,2.1-1.3,2.1C313.3,1027.4,308.2,997.1,311.7,996.3z"/>
</svg>
