<?xml version="1.0" encoding="utf-8"?>
<!-- Generator: Adobe Illustrator 19.0.0, SVG Export Plug-In . SVG Version: 6.00 Build 0)  -->
<svg version="1.1" id="Layer_1" xmlns="http://www.w3.org/2000/svg" xmlns:xlink="http://www.w3.org/1999/xlink" x="0px" y="0px"
	 viewBox="-267 525 1000 1000" style="enable-background:new -267 525 1000 1000;" xml:space="preserve">
<style type="text/css">
	.st0{fill:#FFFFFF;}
</style>
<path id="Butt_2" class="st0" d="M308.8,992.4c0.3-0.1,1.1,0.5,2.8,1.6c0.8,0.5,1.6,1.4,3.7,2.9c1.6,1.1,2.7,2,3.7,3.3
	c0,0,2.4,3.4,1.2,8.4c-0.1,0.5-0.3,0.9-0.3,0.9c-0.2,0.6-0.5,1.1-1,2.2c-0.8,1.6-0.8,2-1.1,2.5c-0.8,1.5-1.5,1.9-2.8,3.4
	c-0.7,0.9-1.2,1.6-1.6,2.2c-1,1.7-1.1,2-1.2,2C310.3,1022,305.6,993.2,308.8,992.4z"/>
</svg>
