<?xml version="1.0" encoding="utf-8"?>
<!-- Generator: Adobe Illustrator 19.0.0, SVG Export Plug-In . SVG Version: 6.00 Build 0)  -->
<svg version="1.1" id="Layer_1" xmlns="http://www.w3.org/2000/svg" xmlns:xlink="http://www.w3.org/1999/xlink" x="0px" y="0px"
	 viewBox="-267 525 1000 1000" style="enable-background:new -267 525 1000 1000;" xml:space="preserve">
<style type="text/css">
	.st0{fill:#010101;}
	.st1{fill:#FFFFFF;}
</style>
<g>
	<path id="XMLID_460_" class="st0" d="M198,888.1c-9.8,0-29.4,15.7-34.5,21.1c-8.9,9.4-5.2,15.7-2.2,24.4c6.4,3.9,22.8,5.9,27.1-5.9
		c3.7,17.3,29.8,15.8,34,5.2c5.1-12.8-3.2-24-4.7-25.5C210.4,899.7,207.6,888.2,198,888.1"/>
	<path id="XMLID_459_" class="st1" d="M199.2,885.3c-9.8,0-27.3,17-32.7,21.5c-9.4,7.9-12.1,18.4-5.2,26.8
		c4.3,5.3,22.5,4.1,27.1-5.9c5.7,17.6,25.9,15.8,34,5.2c5.9-7.7-0.3-16.7-2.1-26.4C218.4,896,208.7,885.3,199.2,885.3"/>
	<path id="XMLID_458_" class="st0" d="M189.6,916.2c0.4-2.7,2.8-6.5,9.5-14C194.6,908.9,190.8,912,189.6,916.2z"/>
	<path id="XMLID_457_" class="st0" d="M188.4,917.9c0.8-2.3,0.5-6.3-1.7-15C187.5,910.2,189.2,914.2,188.4,917.9z"/>
	<path id="XMLID_456_" class="st0" d="M207.5,886.7c2.5,1.2,5.4,4.6,10.5,13.2C212.9,893.6,211.1,889,207.5,886.7z"/>
</g>
</svg>
