<?xml version="1.0" encoding="utf-8"?>
<!-- Generator: Adobe Illustrator 19.0.0, SVG Export Plug-In . SVG Version: 6.00 Build 0)  -->
<svg version="1.1" id="Layer_1" xmlns="http://www.w3.org/2000/svg" xmlns:xlink="http://www.w3.org/1999/xlink" x="0px" y="0px"
	 viewBox="-267 525 1000 1000" style="enable-background:new -267 525 1000 1000;" xml:space="preserve">
<style type="text/css">
	.st0{fill:#010101;}
	.st1{fill:#FFFFFF;}
</style>
<g>
	<path id="XMLID_59_" class="st0" d="M215.1,832.1c-6.1,0-18.4,9.8-21.5,13.1c-5.5,5.8-3.2,9.8-1.4,15.2c4,2.4,14.2,3.6,16.9-3.6
		c2.3,10.8,18.6,9.8,21.2,3.2c3.2-8-2-14.9-2.9-15.9C222.8,839.2,221,832.1,215.1,832.1"/>
	<path id="XMLID_58_" class="st1" d="M215.8,830.3c-6.1,0-17,10.6-20.4,13.4c-5.8,4.9-7.6,11.4-3.2,16.7c2.7,3.3,14,2.6,16.9-3.7
		c3.6,11,16.1,9.8,21.2,3.2c3.7-4.8-0.2-10.4-1.3-16.4C227.8,836.9,221.8,830.3,215.8,830.3"/>
	<path id="XMLID_57_" class="st0" d="M209.8,849.6c0.2-1.7,1.7-4.1,5.9-8.7C212.9,845,210.5,847,209.8,849.6z"/>
	<path id="XMLID_56_" class="st0" d="M209.1,850.6c0.5-1.4,0.3-3.9-1.1-9.3C208.5,845.8,209.6,848.3,209.1,850.6z"/>
	<path id="XMLID_55_" class="st0" d="M221,831.2c1.5,0.7,3.4,2.9,6.6,8.3C224.4,835.5,223.3,832.6,221,831.2z"/>
</g>
</svg>
