<?xml version="1.0" encoding="utf-8"?>
<!-- Generator: Adobe Illustrator 19.0.0, SVG Export Plug-In . SVG Version: 6.00 Build 0)  -->
<svg version="1.1" id="Layer_1" xmlns="http://www.w3.org/2000/svg" xmlns:xlink="http://www.w3.org/1999/xlink" x="0px" y="0px"
	 viewBox="-267 525 1000 1000" style="enable-background:new -267 525 1000 1000;" xml:space="preserve">
<style type="text/css">
	.st0{fill:#010101;}
	.st1{fill:#FFFFFF;}
</style>
<g>
	<path id="XMLID_173_" class="st0" d="M232.4,784.2c-2.9,0-8.7,4.6-10.1,6.2c-2.6,2.8-1.5,4.6-0.7,7.2c1.9,1.2,6.7,1.7,8-1.7
		c1.1,5.1,8.8,4.7,10,1.5c1.5-3.8,0.2-6.3-1.4-7.5C235.7,788,235.2,784.3,232.4,784.2"/>
	<path id="XMLID_172_" class="st1" d="M232.7,783.4c-2.9,0-8,5-9.6,6.3c-2.8,2.3-3.6,5.4-1.5,7.9c1.3,1.6,6.6,1.2,8-1.7
		c1.7,5.2,7.6,4.7,10,1.5c1.7-2.3,1.3-6.3-0.6-7.8C236.5,787.8,235.6,783.4,232.7,783.4"/>
	<path id="XMLID_171_" class="st0" d="M229.9,792.5c0.1-0.8,0.8-1.9,2.8-4.1C231.4,790.4,230.2,791.3,229.9,792.5z"/>
	<path id="XMLID_170_" class="st0" d="M229.6,793c0.2-0.7,0.1-1.9-0.5-4.4C229.3,790.7,229.8,791.9,229.6,793z"/>
	<path id="XMLID_169_" class="st0" d="M240.9,789.1c0.3,0.7,0.3,2.1-0.3,5C240.7,791.7,241.2,790.3,240.9,789.1z"/>
</g>
</svg>
