<?xml version="1.0" encoding="utf-8"?>
<!-- Generator: Adobe Illustrator 19.0.0, SVG Export Plug-In . SVG Version: 6.00 Build 0)  -->
<svg version="1.1" id="Layer_1" xmlns="http://www.w3.org/2000/svg" xmlns:xlink="http://www.w3.org/1999/xlink" x="0px" y="0px"
	 viewBox="-267 525 1000 1000" style="enable-background:new -267 525 1000 1000;" xml:space="preserve">
<style type="text/css">
	.st0{fill:#010101;}
	.st1{fill:#FFFFFF;}
</style>
<g>
	<path id="XMLID_135_" class="st0" d="M232.5,790c-3.5,0-10.5,5.6-12.3,7.5c-3.2,3.3-1.9,5.6-0.8,8.7c2.3,1.4,8.1,2.1,9.6-2.1
		c1.3,6.2,10.6,5.6,12.1,1.8c1.8-4.6,0.3-7.6-1.7-9.1C236.5,794.6,235.9,790.1,232.5,790"/>
	<path id="XMLID_134_" class="st1" d="M233,789c-3.5,0-9.7,6-11.6,7.6c-3.3,2.8-4.3,6.5-1.8,9.5c1.6,1.9,8,1.5,9.6-2.1
		c2,6.3,9.2,5.6,12.1,1.8c2.1-2.7,1.6-7.6-0.7-9.4C237.4,794.2,236.3,789,233,789"/>
	<path id="XMLID_133_" class="st0" d="M229.5,800c0.1-1,1-2.3,3.4-5C231.3,797.4,229.9,798.5,229.5,800z"/>
	<path id="XMLID_132_" class="st0" d="M229.1,800.6c0.3-0.8,0.2-2.2-0.6-5.3C228.8,797.8,229.4,799.3,229.1,800.6z"/>
	<path id="XMLID_131_" class="st0" d="M242.7,795.9c0.4,0.9,0.3,2.5-0.4,6C242.6,799,243.2,797.4,242.7,795.9z"/>
</g>
</svg>
