<?xml version="1.0" encoding="utf-8"?>
<!-- Generator: Adobe Illustrator 19.0.0, SVG Export Plug-In . SVG Version: 6.00 Build 0)  -->
<svg version="1.1" id="Layer_1" xmlns="http://www.w3.org/2000/svg" xmlns:xlink="http://www.w3.org/1999/xlink" x="0px" y="0px"
	 viewBox="-267 525 1000 1000" style="enable-background:new -267 525 1000 1000;" xml:space="preserve">
<style type="text/css">
	.st0{fill:#010101;}
	.st1{fill:#FFFFFF;}
</style>
<g>
	<path id="XMLID_211_" class="st0" d="M235.6,775.9c-2.3,0-7,3.7-8.2,5c-2.1,2.2-1.2,3.7-0.5,5.8c1.5,0.9,5.4,1.4,6.4-1.4
		c0.9,4.1,7.1,3.8,8.1,1.2c1.2-3,0.2-5.1-1.1-6.1C238.2,779,237.9,775.9,235.6,775.9"/>
	<path id="XMLID_210_" class="st1" d="M235.8,775.3c-2.3,0-6.5,4-7.8,5.1c-2.2,1.9-2.9,4.4-1.2,6.4c1,1.3,5.3,1,6.4-1.4
		c1.4,4.2,6.1,3.8,8.1,1.2c1.4-1.8,1-5.1-0.5-6.3C238.9,778.7,238.1,775.3,235.8,775.3"/>
	<path id="XMLID_209_" class="st0" d="M233.6,782.6c0.1-0.6,0.7-1.6,2.3-3.3C234.8,780.9,233.8,781.6,233.6,782.6z"/>
	<path id="XMLID_208_" class="st0" d="M233.3,783c0.2-0.5,0.1-1.5-0.4-3.6C233.1,781.2,233.5,782.1,233.3,783z"/>
	<path id="XMLID_207_" class="st0" d="M242.4,779.8c0.3,0.6,0.2,1.7-0.2,4C242.3,781.9,242.7,780.8,242.4,779.8z"/>
</g>
</svg>
