<?xml version="1.0" encoding="utf-8"?>
<!-- Generator: Adobe Illustrator 19.0.0, SVG Export Plug-In . SVG Version: 6.00 Build 0)  -->
<svg version="1.1" id="Layer_1" xmlns="http://www.w3.org/2000/svg" xmlns:xlink="http://www.w3.org/1999/xlink" x="0px" y="0px"
	 viewBox="-267 525 1000 1000" style="enable-background:new -267 525 1000 1000;" xml:space="preserve">
<style type="text/css">
	.st0{fill:#010101;}
	.st1{fill:#FFFFFF;}
</style>
<g>
	<path id="XMLID_97_" class="st0" d="M224.3,808.1c-4.5,0-13.6,7.3-16,9.8c-4.1,4.4-2.4,7.3-1,11.3c3,1.8,10.6,2.7,12.6-2.7
		c1.7,8,13.8,7.3,15.8,2.4c2.4-6,0.4-10-2.2-11.8C229.5,814.1,228.8,808.1,224.3,808.1"/>
	<path id="XMLID_96_" class="st1" d="M224.9,806.7c-4.5,0-12.7,7.9-15.2,10c-4.3,3.6-5.6,8.5-2.4,12.4c2,2.5,10.4,1.9,12.6-2.7
		c2.7,8.2,12,7.3,15.8,2.4c2.7-3.6,2-9.9-1-12.2C230.7,813.6,229.3,806.8,224.9,806.7"/>
	<path id="XMLID_95_" class="st0" d="M220.4,821.1c0.2-1.2,1.3-3,4.4-6.5C222.7,817.7,220.9,819.1,220.4,821.1z"/>
	<path id="XMLID_94_" class="st0" d="M219.8,821.9c0.4-1.1,0.2-2.9-0.8-6.9C219.4,818.3,220.2,820.2,219.8,821.9z"/>
	<path id="XMLID_93_" class="st0" d="M233.9,810.9c0.8,0.9,1.5,2.9,2.2,7.5C235.1,814.9,235.1,812.6,233.9,810.9z"/>
</g>
</svg>
