<?xml version="1.0" encoding="utf-8"?>
<!-- Generator: Adobe Illustrator 19.0.0, SVG Export Plug-In . SVG Version: 6.00 Build 0)  -->
<svg version="1.1" id="Layer_1" xmlns="http://www.w3.org/2000/svg" xmlns:xlink="http://www.w3.org/1999/xlink" x="0px" y="0px"
	 viewBox="-267 525 1000 1000" style="enable-background:new -267 525 1000 1000;" xml:space="preserve">
<style type="text/css">
	.st0{fill:#FFFFFF;}
</style>
<g id="Feet">
	<path id="XMLID_281_" class="st0" d="M237.9,1410.5c0.1,0.3,0.2,0.3,0.5,0.7c0,0,0.3,0.6,0.4,1.3c0,0.8-0.6,1.2-1.5,2.4
		c-1.3,1.9-1,2.8-2,3.3c-0.3,0.2-0.8,0.3-1.7,0.4c-0.1,0-0.5,0-1.4,0.1c-0.4,0-0.7,0-1-0.2c-0.1-0.1-0.2-0.2-0.2-0.4
		c0-0.3,0.5-0.3,0.9-0.5c0.6-0.3,0.9-0.8,1.2-1.2c0.4-0.7,0.3-1,0.9-2.6c0.3-0.7,0.3-0.7,0.5-1.3c0.3-0.8,0.3-1.1,0.5-2
		c0.3-1.1,0.6-2,0.8-2.3c0.8-0.8,1.7-0.4,2,0.2C237.9,1408.9,237.6,1409.8,237.9,1410.5z"/>
	<path id="XMLID_280_" class="st0" d="M244.8,1413.3c0.1-1.1,0.9-2,1.4-4.8c0.1-0.7,0.4-0.8,0.8-1c0.6-0.3,1.7-0.4,1.8,1
		c0.1,1-0.1,2.6,0,4.4c0.1,1,0,1.8,0.3,3.4c0.3,1.6,0.4,2.4,1,3.3c0.6,1.1,1.3,1.5,1.2,1.9c-0.1,0.4-0.7,0.5-1.5,0.6
		c-0.8,0.1-1.5,0.2-2.4-0.2c-0.2-0.1-0.6-0.3-1-0.8c-0.8-1-0.4-2.1-0.8-3.9C245,1414.6,244.7,1414.8,244.8,1413.3z"/>
</g>
</svg>
