<?xml version="1.0" encoding="utf-8"?>
<!-- Generator: Adobe Illustrator 19.0.0, SVG Export Plug-In . SVG Version: 6.00 Build 0)  -->
<svg version="1.1" id="Layer_1" xmlns="http://www.w3.org/2000/svg" xmlns:xlink="http://www.w3.org/1999/xlink" x="0px" y="0px"
	 viewBox="-267 525 1000 1000" style="enable-background:new -267 525 1000 1000;" xml:space="preserve">
<style type="text/css">
	.st0{fill:#FFFFFF;}
</style>
<path id="XMLID_285_" class="st0" d="M228,1400.6c0.6,0.4-0.4,1.6,0.1,3.1c0.4,1.2,0.8,1.1,1,1.7c0.4,1.7-1.3,4-3.3,5
	c-1.7,0.8-3.7,0.9-4,0.4c-0.1-0.3,0.3-0.5,1-1.4c0.3-0.4,1.5-2.1,1.7-3.7c0.3-2.1,1.2-3.6,1.3-4.9
	C226,1399.6,227.2,1399.9,228,1400.6z"/>
<path id="XMLID_284_" class="st0" d="M228.8,1410.1c1-0.4,1.6-0.6,1.8-1.1c0.4-0.7,0-1.5-0.2-2.1s-0.8-1.4-1.1-1.4
	c-0.2,0-0.1,0.3-0.3,0.7c-0.2,0.6-0.6,0.9-1,1.3c-2.3,2.1-2.8,3.2-4,3.2c-0.7,0-0.8-0.4-1.8-0.3c-0.1,0-0.8,0-1.6,0.4
	c-0.3,0.2-1.5,0.7-1.4,1.2c0.1,0.7,2.5,0.8,2.8,0.8c1,0,2,0.1,3-0.4c0.8-0.4,0.7-0.8,1.6-1.3
	C227.2,1410.5,227.5,1410.6,228.8,1410.1z"/>
<path id="XMLID_283_" class="st0" d="M236.7,1406.5c-0.5,0.7-0.2,1.1-0.7,3.7c-0.2,1-0.3,2-0.5,3c-0.1,0.3-0.2,0.8-0.1,1.4
	c0,0.2,0.2,0.8,0.7,1.2c0.5,0.4,0.4,0.6,1.7,0.5c1.3,0,1.4-0.2,1.8-0.5c0.8-0.6,0.6-2.7,0.4-3.4c-0.1-0.9-0.3-1-0.3-2
	c-0.1-1.2,0.1-1.3,0-2.1c-0.1-0.6-0.3-2.1-1.2-2.5C237.8,1405.4,237.3,1405.8,236.7,1406.5z"/>
<path id="XMLID_282_" class="st0" d="M236.9,1402.3c-0.2,0.2-0.3,0.4-0.4,0.9c-0.2,0.5-0.4,1.3-0.4,2.3c0,0.8,0.2,0.7,0.3,1.7
	c0.1,0.9,0,1.6-0.2,2.8c-0.2,1.6-0.3,1.8-0.1,2.2c0.4,0.7,1.4,0.7,1.9,0.7c0.9,0,1.7-0.3,1.9-1.1c0-0.2,0-0.3,0-0.5
	c-0.3-1.3,0-1.5-0.2-2.9c-0.2-1.4-0.3-1.4-0.3-2.3c0-0.8,0.5-1.3,0-2.8c-0.2-0.5-0.3-0.7-0.4-0.8
	C238.4,1401.9,237.4,1401.8,236.9,1402.3z"/>
</svg>
