<?xml version="1.0" encoding="utf-8"?>
<!-- Generator: Adobe Illustrator 19.0.0, SVG Export Plug-In . SVG Version: 6.00 Build 0)  -->
<svg version="1.1" id="Layer_1" xmlns="http://www.w3.org/2000/svg" xmlns:xlink="http://www.w3.org/1999/xlink" x="0px" y="0px"
	 viewBox="-267 525 1000 1000" style="enable-background:new -267 525 1000 1000;" xml:space="preserve">
<style type="text/css">
	.st0{fill:#FFFFFF;}
	.st1{fill:#383838;}
</style>
<g>
	<path id="XMLID_290_" class="st0" d="M249.1,1419.3c-0.8-0.1-2,1.2-2.1,2.4c0,0.6,0.3,0.9,0.6,1.6c1.1,2.3,1,5.1,0.9,6.1
		c0,0.7-0.1,1.5,0.3,2.3c0.3,0.6,0.8,0.9,1.1,1.1c1.1,0.7,2.1,0.6,3,0.6c0.8,0,1.1-0.2,1.2-0.4c0.4-0.4,0.4-0.8,0.4-1.1
		c0-0.7-0.3-1.2-0.5-1.6c-0.8-1.4-1.3-2.1-1.6-2.4C250.2,1425.2,250.8,1419.6,249.1,1419.3z"/>
	<path id="XMLID_289_" class="st0" d="M252.2,1430.2c0.2-0.1,0.6-0.3,0.8-0.8c0.1-0.4,0-0.6-0.2-1.4c0,0-0.3-0.9-0.4-1.9
		c-0.1-0.8-0.1-1-0.1-1.8c-0.2-2.9-1.2-2.9-1.1-5.3c0-0.1-0.1-1.8-0.1-2.6c-0.5-0.1-2.6,0-2.6,0c-0.3,1.1,0.2,2.8,0.2,2.9
		c-0.4,0.8-0.2,1.6-0.1,2.1c0.5,2.3,0.8,3.1,1,3.9c0.6,2.8-0.1,4.1,0.8,4.7C250.8,1430.5,251.6,1430.5,252.2,1430.2z"/>
	<path id="XMLID_288_" class="st1" d="M239.7,1429.2c0,0.1-0.2,0.1-0.2,0c0-0.4,0-0.6,0-0.7c0-0.3,0.2-1.8,0.2-2.8
		c0-2.1-0.1-2.4,0.1-2.9c0.3-0.6,0.8-1.2,1-1.1c0.1,0,0.4,0,0,1.3c-0.4,1.4-0.4,1.7-0.6,2.7c-0.3,1.6-0.3,2.4-0.3,2.9
		C239.8,1428.7,239.8,1428.9,239.7,1429.2z"/>
	<path id="XMLID_287_" class="st0" d="M237.6,1422.3c-1.3,2.6-1,4.1-2.4,4.9c-0.3,0.2-0.7,0.5-1,0.6c-1,0.4-1.5,0.6-1.6,1.1
		c-0.1,0.3,0.1,0.6,0.1,0.6c0.2,0.3,0.7,0.7,1.4,0.9c1,0.3,1.2,0.4,2.4,0.1c0.5-0.1,1-0.3,1.5-0.7c1.1-1,0.3-2.2,1-4
		c0.8-2.2,2.4-2.5,2.4-4c-0.1-0.9-0.7-1.9-1.3-2C239,1419.6,238.1,1421.3,237.6,1422.3z"/>
	<path id="XMLID_286_" class="st0" d="M235.1,1427.7c0,0.3,0.6,0.7,1,0.6c0.7-0.1,0.6-1.3,1.3-3.7c0.6-1.7,0.9-2.7,1.7-3.7
		c0.3-0.3,0.6-1.1,0.6-1.1s0.2-2.3-0.2-3.2c0,0-1.5-0.5-1.6-0.5c-0.1,0-0.4,3-0.6,3.2c-1.5,2.8-1.5,3.3-1.5,3.3
		c-0.3,0.9-0.4,1.2-0.4,1.3c-0.1,0.4-0.3,1.3-0.1,2.3c0,0.2,0.1,0.6,0,0.9C235.2,1427.4,235.1,1427.5,235.1,1427.7z"/>
</g>
</svg>
